<svg width="166" height="175" viewBox="0 0 166 175" fill="none" xmlns="http://www.w3.org/2000/svg">
<path d="M165.5 87.5C165.5 135.574 128.539 174.5 83 174.5C37.4611 174.5 0.5 135.574 0.5 87.5C0.5 39.426 37.4611 0.5 83 0.5C128.539 0.5 165.5 39.426 165.5 87.5Z" fill="white" stroke="#D7D7D7"/>
<path d="M83 102.583C91.0542 102.583 97.5834 96.0542 97.5834 88.0001C97.5834 79.9459 91.0542 73.4167 83 73.4167C74.9459 73.4167 68.4167 79.9459 68.4167 88.0001C68.4167 96.0542 74.9459 102.583 83 102.583Z" stroke="#1574FF" stroke-width="3" stroke-linecap="round" stroke-linejoin="round"/>
<path d="M83 81.75V88L86.125 91.125" stroke="#1574FF" stroke-width="2" stroke-linecap="round" stroke-linejoin="round"/>
<path d="M92.3958 99.1458L91.6666 107.125C91.5728 108.164 91.0927 109.13 90.3212 109.832C89.5498 110.534 88.543 110.921 87.5 110.917H78.4791C77.4361 110.921 76.4294 110.534 75.6579 109.832C74.8864 109.13 74.4063 108.164 74.3125 107.125L73.5833 99.1458M73.6041 76.8541L74.3333 68.875C74.4269 67.8397 74.904 66.8768 75.6711 66.1753C76.4381 65.4737 77.4397 65.0843 78.4791 65.0833H87.5416C88.5847 65.0791 89.5914 65.4662 90.3629 66.1682C91.1344 66.8703 91.6144 67.8361 91.7083 68.875L92.4375 76.8541" stroke="#1574FF" stroke-width="3" stroke-linecap="round" stroke-linejoin="round"/>
</svg>
