<svg width="166" height="175" viewBox="0 0 166 175" fill="none" xmlns="http://www.w3.org/2000/svg">
<path d="M165.5 87.5C165.5 135.574 128.539 174.5 83 174.5C37.4611 174.5 0.5 135.574 0.5 87.5C0.5 39.426 37.4611 0.5 83 0.5C128.539 0.5 165.5 39.426 165.5 87.5Z" fill="white" stroke="#D7D7D7"/>
<path d="M95.5 67.1667H70.5C68.1988 67.1667 66.3333 69.0322 66.3333 71.3334V104.667C66.3333 106.968 68.1988 108.833 70.5 108.833H95.5C97.8012 108.833 99.6666 106.968 99.6666 104.667V71.3334C99.6666 69.0322 97.8012 67.1667 95.5 67.1667Z" stroke="#1574FF" stroke-width="3" stroke-linecap="round" stroke-linejoin="round"/>
<path d="M83 100.5H83.0208" stroke="#1574FF" stroke-width="3" stroke-linecap="round" stroke-linejoin="round"/>
</svg>
