<svg width="166" height="175" viewBox="0 0 166 175" fill="none" xmlns="http://www.w3.org/2000/svg">
<path d="M165.5 87.5C165.5 135.574 128.539 174.5 83 174.5C37.4611 174.5 0.5 135.574 0.5 87.5C0.5 39.426 37.4611 0.5 83 0.5C128.539 0.5 165.5 39.426 165.5 87.5Z" fill="white" stroke="#D7D7D7"/>
<g clip-path="url(#clip0_832_3489)">
<path d="M84.9166 70.3334V75.8959L83 77.9792L81.0833 75.8959V70.3334H84.9166ZM98.3333 84.9167V89.0834H93.2158L91.2991 87.0001L93.2158 84.9167H98.3333ZM72.7841 84.9167L74.7008 87.0001L72.7841 89.0834H67.6666V84.9167H72.7841ZM83 96.0209L84.9166 98.1043V103.667H81.0833V98.1043L83 96.0209ZM88.75 66.1667H77.25V77.6251L83 83.8751L88.75 77.6251V66.1667ZM102.167 80.7501H91.625L85.875 87.0001L91.625 93.2501H102.167V80.7501ZM74.375 80.7501H63.8333V93.2501H74.375L80.125 87.0001L74.375 80.7501ZM83 90.1251L77.25 96.3751V107.833H88.75V96.3751L83 90.1251Z" fill="#1574FF"/>
</g>
<defs>
<clipPath id="clip0_832_3489">
<rect width="46" height="50" fill="white" transform="translate(60 62)"/>
</clipPath>
</defs>
</svg>
