<svg width="917" height="608" viewBox="0 0 917 608" fill="none" xmlns="http://www.w3.org/2000/svg">
<g clip-path="url(#clip0_822_3205)">
<path d="M859.923 607.479C889.646 607.479 914.297 582.479 916.363 550.25C921.086 476.576 880.957 406.114 781.25 387.211C719.35 375.477 649.46 291.449 617.119 227.532C561.606 117.818 484.7 63.5542 405.368 63.5542C275.838 63.5542 257.621 134.216 201.2 221C101.887 373.735 58.56 375.822 9.13 477.8C-0.900001 498.5 -0.736001 526.328 0.732999 550.257C2.712 582.491 27.452 607.479 57.173 607.479H859.923Z" fill="#F3F5FD"/>
<path d="M817.692 149.29L821.116 150.44C821.116 150.44 820.669 162.584 819.404 168.761C818.139 174.938 817.153 182.989 813.223 183.874C808.005 185.048 801.782 185.481 797.261 183.865C793.842 182.643 793.317 171.035 792.983 165.301C792.834 162.755 793.158 162.976 795.703 163.151C800.911 163.509 809.011 163.784 811.993 162.351C816.532 160.172 817.692 149.29 817.692 149.29Z" fill="#0F1011"/>
<path d="M830.352 194.8C830.352 194.8 822.619 190.7 824.346 169.643L808.37 166.681C808.37 166.681 810.165 185.559 802.082 191.553L830.352 194.8Z" fill="#E98862"/>
<path d="M833.411 161.48C832.305 167.869 828.819 173.918 823.183 175.98C816.494 178.43 811.539 178.595 803.826 178.595C793.301 178.595 793.649 167.619 793.353 156.557C793.053 145.457 793.121 136.073 797.281 132.203C805.581 124.479 830.772 126.836 833.737 139.756C835.27 146.44 834.464 155.4 833.411 161.48Z" fill="#E98862"/>
<path d="M838.479 153.264C836.942 162.975 834.929 166.037 832.023 170.68C830.301 173.58 827.988 176.085 825.236 178.034C823.094 179.414 802.082 179.128 798.455 178.597C793.103 177.815 792.292 162.567 793.248 162.567C794.438 162.567 794.721 162.535 796.061 162.535C798.506 162.535 798.75 147.968 799.211 141.523C798.835 141.471 798.456 141.445 798.077 141.444C786.572 141.444 841.059 136.962 838.479 153.264Z" fill="#0F1011"/>
<path d="M801.271 162.849C802.837 162.889 804.36 162.329 805.526 161.282C806.692 160.235 807.413 158.782 807.541 157.22C807.622 156.418 807.541 155.608 807.303 154.838C807.066 154.068 806.677 153.353 806.158 152.736C805.64 152.119 805.003 151.612 804.286 151.245C803.568 150.878 802.785 150.658 801.981 150.599C801.841 154.959 801.611 159.549 801.271 162.849Z" fill="#E98862"/>
<path d="M838.479 153.264C838.479 153.264 843.873 125.985 817.806 123.464C791.739 120.943 793.306 145.315 793.306 145.315L803.649 150.586C803.649 150.586 815.193 153.758 838.479 153.264Z" fill="#262626"/>
<path d="M834.762 150.092C834.796 148.916 834.599 147.745 834.18 146.645C833.762 145.546 833.13 144.54 832.323 143.684C831.515 142.829 830.546 142.141 829.473 141.66C828.399 141.18 827.241 140.915 826.065 140.882C824.889 140.85 823.718 141.049 822.619 141.469C821.52 141.889 820.515 142.522 819.66 143.33C818.806 144.139 818.12 145.109 817.64 146.183C817.161 147.258 816.898 148.416 816.867 149.592" fill="#0F1011"/>
<path d="M803.644 150.584C803.644 150.584 795.137 147.716 790.585 145.028C785.738 142.166 779.185 136.965 779.218 135.417C779.278 132.717 788.707 131.964 796.41 132.269L796.351 132.384C795.068 134.926 794.711 137.835 795.34 140.612C795.97 143.389 797.546 145.86 799.8 147.6L803.644 150.584Z" fill="#262626"/>
<path d="M284.922 594.985H608.922L608.922 12.4939H284.922L284.922 594.985Z" fill="#DEE8F5"/>
<path d="M284.922 12.494H608.922V594.985H284.922V12.494ZM272.428 0V607.479H621.416V0H272.428Z" fill="#C1D8ED"/>
<path d="M559.405 318.407C567.505 318.407 574.072 311.841 574.072 303.74C574.072 295.64 567.505 289.073 559.405 289.073C551.305 289.073 544.738 295.64 544.738 303.74C544.738 311.841 551.305 318.407 559.405 318.407Z" fill="white"/>
<path d="M762.621 596.436C760.407 577.818 760.407 575.903 760.407 575.273H781.407C781.407 575.209 781.407 575.127 781.407 575.028C781.481 576.582 782.541 586.063 783.48 593.955L762.621 596.436Z" fill="#E98862"/>
<path d="M846.3 598.947C846.3 598.947 846.229 577.199 846.229 575.273H867.229C867.229 577.193 867.3 598.873 867.3 598.878L846.3 598.947Z" fill="#E98862"/>
<path d="M748.8 257.726C745.834 257.44 736.068 254.917 735.117 257.368C734.546 258.838 741.764 261.334 741.764 261.334" fill="#E98862"/>
<path d="M749.209 269.769C749.209 269.769 728.394 276.063 717.798 265.569C717.528 265.301 717.345 264.959 717.273 264.585C717.201 264.212 717.244 263.826 717.395 263.477C717.546 263.129 717.8 262.834 718.121 262.631C718.443 262.429 718.818 262.328 719.198 262.343C726.998 262.635 743.078 262.608 741.71 257.315L754.21 258.522" fill="#E98862"/>
<path d="M761.721 213.855H660.752V297.822H761.721V213.855Z" fill="#8DDBE0"/>
<path d="M761.721 213.855H660.752V297.822H761.721V213.855Z" fill="#0CBC8B"/>
<g opacity="0.12">
<path d="M761.721 213.855H660.752V297.822H761.721V213.855Z" fill="black"/>
</g>
<path d="M729.721 213.855H638.752V297.822H729.721V213.855Z" fill="#0CBC8B"/>
<path d="M835.84 591.728L872.709 588.613C868.217 519.898 860.988 407.808 857.281 347.528C856.516 335.103 854.321 297.822 854.321 297.822L778.243 302.522L777.462 307.852L777.195 307.773C768.275 355.059 764.479 407.284 757.248 454.907C756.739 499.007 756.599 545.199 754.874 589.179L791.868 589.809C791.751 546.881 792.817 501.964 794.081 458.909C800.391 424.573 807.334 388.639 814.595 353.967C820.937 425.373 829.157 523.525 835.84 591.728Z" fill="#262626"/>
<path d="M820.768 607.069C820.203 607.066 819.645 606.947 819.129 606.719C818.612 606.491 818.148 606.159 817.765 605.743C817.383 605.328 817.09 604.838 816.906 604.304C816.721 603.77 816.648 603.204 816.692 602.641C816.753 601.861 817.035 601.114 817.506 600.489C817.978 599.863 818.618 599.386 819.351 599.112L843.793 590.926C844.267 590.769 844.769 590.716 845.264 590.771C845.76 590.826 846.238 590.988 846.666 591.245C850.026 593.576 854.045 594.768 858.133 594.645C861.317 594.419 864.374 593.302 866.954 591.423C867.181 591.237 867.456 591.119 867.747 591.084C868.038 591.048 868.333 591.096 868.598 591.221C868.863 591.347 869.087 591.546 869.243 591.794C869.4 592.042 869.482 592.33 869.481 592.623V604.575C869.481 604.928 869.412 605.277 869.276 605.603C869.141 605.928 868.943 606.224 868.693 606.473C868.443 606.722 868.147 606.919 867.82 607.053C867.494 607.187 867.145 607.255 866.792 607.253L820.768 607.069Z" fill="#C1D8ED"/>
<path d="M737.035 607.069C736.47 607.066 735.912 606.947 735.395 606.719C734.879 606.491 734.415 606.159 734.032 605.743C733.65 605.328 733.357 604.838 733.172 604.304C732.988 603.77 732.915 603.204 732.959 602.641C733.02 601.861 733.302 601.114 733.773 600.489C734.244 599.864 734.884 599.386 735.617 599.112L760.06 590.926C760.533 590.769 761.035 590.716 761.531 590.771C762.027 590.826 762.505 590.988 762.932 591.245C766.292 593.576 770.312 594.768 774.4 594.645C777.584 594.419 780.64 593.302 783.22 591.423C783.447 591.237 783.722 591.119 784.013 591.084C784.304 591.048 784.599 591.096 784.864 591.222C785.129 591.348 785.353 591.546 785.51 591.794C785.666 592.042 785.749 592.33 785.748 592.623V604.575C785.748 604.928 785.678 605.277 785.543 605.602C785.408 605.928 785.21 606.224 784.96 606.473C784.71 606.721 784.413 606.918 784.087 607.052C783.761 607.186 783.412 607.255 783.059 607.253L737.035 607.069Z" fill="#C1D8ED"/>
<path d="M696.377 262.065C693.398 262.144 683.397 260.834 682.753 263.383C682.366 264.911 689.836 266.506 689.836 266.506" fill="#E98862"/>
<path d="M709.568 271.425C709.682 275.739 701.037 278.586 688.722 278.911C676.407 279.236 665.089 276.911 664.975 272.603C664.861 268.295 674.751 264.529 687.065 264.203C699.379 263.877 709.454 267.111 709.568 271.425Z" fill="#E98862"/>
<path d="M864.163 271.5L861.519 215.612C861.642 213.497 861.541 211.374 861.219 209.28L861.21 209.086H861.182C860.512 204.788 858.483 200.819 855.393 197.758C850.825 193.189 842.914 190.232 833.277 190.232C818.933 190.232 799.343 190.263 795.328 190.432C782.185 190.995 776.54 197.266 774.528 206.355L750.312 258.7L692.676 259.912L693.117 280.912L757.308 279.561C758.778 279.53 760.225 279.19 761.555 278.565C762.886 277.939 764.07 277.04 765.031 275.928L776.031 276.803C773.949 293.022 769.725 298.361 772.994 305.872C777.188 315.497 859.517 319.501 860.617 302.556C861.017 296.322 858.017 290.541 855.406 282.713C857.966 282.204 860.259 280.792 861.867 278.736C863.474 276.679 864.291 274.114 864.167 271.506L864.163 271.5ZM776.987 255.07L775.2 254.921L776.8 251.465C776.884 252.683 776.943 253.883 776.987 255.072V255.07Z" fill="#367CFF"/>
<path d="M115.94 598.606C96.809 592.677 78.248 584.929 61.34 563.245C57.87 558.802 54.609 553.109 56.51 547.791C57.941 543.791 62.082 541.226 66.289 540.57C67.8559 540.342 69.444 540.299 71.021 540.44C71.028 540.44 71.036 540.44 71.039 540.44C73.4634 540.687 75.86 541.156 78.199 541.84L78.867 542.03C90.0291 545.202 100.662 550.005 110.422 556.281C111.306 556.845 112.356 557.094 113.399 556.986C114.443 556.878 115.419 556.42 116.17 555.687C116.92 554.953 117.4 553.988 117.532 552.947C117.663 551.906 117.439 550.851 116.895 549.954C115.899 548.328 114.74 546.808 113.437 545.417C111.514 543.406 109.408 541.58 107.145 539.961C104.138 537.767 100.929 535.81 97.789 533.805C86.1149 526.371 75.0552 518.013 64.716 508.812C57.337 502.238 50.116 494.943 46.616 485.701C45.005 481.45 44.271 476.551 46.194 472.432C49.366 465.666 58.351 463.775 65.699 465.178C78.574 467.644 88.86 477.078 97.98 486.489C105.544 494.306 114.02 502.962 124.887 503.442C126.739 503.615 128.602 503.242 130.244 502.367C133.344 500.49 134.144 496.139 133.037 492.685C131.93 489.231 129.375 486.471 126.907 483.821C112.563 468.432 98.447 452.421 89.132 433.567C79.817 414.713 75.692 392.447 82.164 372.428C84.064 366.575 86.913 360.88 91.364 356.628C95.815 352.376 102.05 349.71 108.157 350.528C116.476 351.628 122.741 358.646 126.957 365.894C141.446 390.769 140.557 421.247 144.641 449.741C145.783 457.719 147.441 465.9 152.194 472.466C152.632 473.098 153.2 473.628 153.861 474.021C157.771 476.285 161.279 471.721 162.749 467.845C168.549 452.518 169.993 434.989 180.369 422.303C184.328 417.474 189.934 413.437 196.176 413.477C203.801 413.529 210.331 419.898 212.556 427.195C214.781 434.492 213.45 442.413 211.066 449.657C206.64 463.089 198.708 475.157 189.361 485.757C184.432 491.357 178.861 497.015 177.382 504.321C176.929 506.804 177.119 509.362 177.932 511.751C178.746 514.14 180.157 516.282 182.031 517.972C182.907 518.734 183.928 519.313 185.032 519.674C186.136 520.034 187.301 520.17 188.458 520.072C190.958 519.842 193.226 518.566 195.408 517.325C196.324 516.803 197.243 516.274 198.167 515.755C201.812 513.68 205.457 511.602 209.103 509.522C218.371 504.235 229.562 498.833 239.215 503.386C244.146 505.714 247.368 510.291 248.887 515.543C250.245 520.309 250.245 525.359 248.887 530.124C246.011 540.037 227.887 567.624 220.412 574.736C211.672 583.05 181.4 618.892 115.94 598.606Z" fill="#8DDBE0"/>
</g>
<defs>
<clipPath id="clip0_822_3205">
<rect width="916.734" height="607.479" fill="white"/>
</clipPath>
</defs>
</svg>
