<svg width="24" height="24" viewBox="0 0 30 24" fill="none" xmlns="http://www.w3.org/2000/svg">
<path d="M26.0499 4.61C25.4115 4.099 24.6534 3.69364 23.8191 3.41708C22.9848 3.14052 22.0905 2.99817 21.1874 2.99817C20.2843 2.99817 19.39 3.14052 18.5557 3.41708C17.7214 3.69364 16.9634 4.099 16.3249 4.61L14.9999 5.67L13.6749 4.61C12.3853 3.57831 10.6362 2.99871 8.8124 2.99871C6.98861 2.99871 5.23952 3.57831 3.9499 4.61C2.66029 5.64169 1.93579 7.04097 1.93579 8.5C1.93579 9.95903 2.66029 11.3583 3.9499 12.39L5.2749 13.45L14.9999 21.23L24.7249 13.45L26.0499 12.39C26.6886 11.8792 27.1953 11.2728 27.541 10.6054C27.8868 9.93789 28.0647 9.22249 28.0647 8.5C28.0647 7.77751 27.8868 7.0621 27.541 6.39464C27.1953 5.72718 26.6886 5.12075 26.0499 4.61Z" stroke="#8C8C8C" stroke-width="2" stroke-linecap="round" stroke-linejoin="round"/>
</svg>
