<svg width="354" height="279" viewBox="0 0 354 279" fill="none" xmlns="http://www.w3.org/2000/svg">
<g clip-path="url(#clip0_318_2275)">
<path opacity="0.1" d="M352.377 192.363C342.708 147.29 286.063 111.266 275.014 64.2967C254.934 4.53898 188.749 -4.90883 145.74 21.0439C77.5927 62.1664 150.292 72.3712 16.677 169.665C-16.3155 193.688 -5.80263 299.734 97.9899 275.397C153.846 262.3 170.827 260.462 195.951 258.305C259.279 252.87 368.607 268.024 352.377 192.363Z" fill="#367CFF"/>
<path d="M276.725 203.659L178.846 251.449L81.1152 203.659V131.493H276.725V203.659Z" fill="white"/>
<path d="M178.846 252.182C178.716 252.182 178.589 252.153 178.475 252.096L80.7467 204.307C80.6196 204.245 80.5132 204.152 80.4387 204.038C80.3643 203.925 80.3247 203.795 80.3242 203.662V131.493C80.3242 131.299 80.4078 131.112 80.5564 130.975C80.7051 130.837 80.9068 130.76 81.1171 130.76H276.725C276.935 130.76 277.137 130.837 277.285 130.975C277.434 131.112 277.518 131.299 277.518 131.493V203.659C277.517 203.792 277.477 203.922 277.403 204.036C277.329 204.15 277.222 204.242 277.095 204.304L179.216 252.095C179.102 252.151 178.975 252.181 178.846 252.182ZM81.9074 203.219L178.846 250.621L275.932 203.218V132.226H81.9074V203.219Z" fill="#262626"/>
<path d="M276.725 116.007L178.846 68.2178L222.829 48.6191L320.708 96.4094L276.725 116.007Z" fill="white"/>
<path d="M276.724 116.741C276.595 116.741 276.468 116.712 276.354 116.656L178.475 68.8659C178.345 68.8024 178.237 68.707 178.163 68.5901C178.088 68.4733 178.05 68.3397 178.053 68.2041C178.056 68.0685 178.099 67.9362 178.178 67.822C178.257 67.7078 178.369 67.6161 178.501 67.5571L222.484 47.9584C222.596 47.9083 222.719 47.8832 222.843 47.8854C222.967 47.8875 223.089 47.9167 223.199 47.9707L321.078 95.7609C321.208 95.8243 321.316 95.9197 321.39 96.0364C321.465 96.1532 321.503 96.2868 321.5 96.4224C321.497 96.558 321.454 96.6902 321.375 96.8044C321.296 96.9186 321.184 97.0102 321.052 97.0691L277.069 116.668C276.961 116.716 276.844 116.741 276.724 116.741ZM180.604 68.2466L276.741 115.185L318.948 96.3784L222.812 49.4407L180.604 68.2466Z" fill="#262626"/>
<path d="M81.1139 116.007L178.993 68.2178L135.01 48.6191L37.1309 96.4094L81.1139 116.007Z" fill="white"/>
<path d="M81.1132 116.741C80.9939 116.741 80.8762 116.716 80.7687 116.668L36.7882 97.0691C36.6561 97.0102 36.5443 96.9186 36.4651 96.8044C36.386 96.6902 36.3427 96.558 36.34 96.4224C36.3373 96.2868 36.3753 96.1532 36.4499 96.0364C36.5244 95.9197 36.6325 95.8243 36.7622 95.7609L134.641 47.9707C134.751 47.9167 134.873 47.8875 134.997 47.8854C135.121 47.8832 135.244 47.9083 135.356 47.9584L179.339 67.5571C179.471 67.6161 179.583 67.7078 179.662 67.822C179.741 67.9362 179.784 68.0685 179.787 68.2041C179.79 68.3397 179.752 68.4733 179.677 68.5901C179.603 68.707 179.495 68.8024 179.365 68.8659L81.4861 116.656C81.3712 116.712 81.2431 116.741 81.1132 116.741ZM38.889 96.3796L81.0967 115.187L177.233 68.2478L135.026 49.4407L38.889 96.3796Z" fill="#262626"/>
<path d="M81.1132 116.008L178.992 163.798L128.666 189.26L30.7871 141.47L81.1132 116.008Z" fill="white"/>
<path d="M128.667 189.993C128.538 189.993 128.411 189.964 128.296 189.908L30.4175 142.118C30.2911 142.056 30.1852 141.963 30.1111 141.85C30.0369 141.737 29.9972 141.608 29.9961 141.475C29.9951 141.343 30.0327 141.213 30.1051 141.099C30.1775 140.985 30.282 140.891 30.4073 140.828L80.7334 115.365C80.8483 115.307 80.9771 115.276 81.1082 115.275C81.2394 115.274 81.3686 115.303 81.4844 115.36L179.363 163.151C179.49 163.212 179.596 163.305 179.67 163.418C179.744 163.531 179.784 163.661 179.785 163.793C179.786 163.925 179.748 164.055 179.676 164.169C179.603 164.283 179.499 164.377 179.373 164.441L129.047 189.903C128.931 189.962 128.8 189.993 128.667 189.993ZM32.4625 141.458L128.66 188.428L177.319 163.809L81.1209 116.84L32.4625 141.458Z" fill="#262626"/>
<path d="M276.725 116.008L178.846 163.798L229.172 189.26L327.051 141.47L276.725 116.008Z" fill="white"/>
<path d="M229.173 189.993C229.04 189.993 228.909 189.962 228.792 189.903L178.466 164.441C178.341 164.377 178.236 164.283 178.164 164.169C178.091 164.055 178.054 163.925 178.055 163.793C178.056 163.661 178.095 163.531 178.17 163.418C178.244 163.305 178.35 163.212 178.476 163.151L276.355 115.36C276.471 115.303 276.6 115.274 276.731 115.275C276.862 115.276 276.991 115.307 277.106 115.365L327.432 140.828C327.557 140.891 327.662 140.985 327.734 141.099C327.807 141.213 327.844 141.343 327.843 141.475C327.842 141.608 327.803 141.737 327.728 141.85C327.654 141.963 327.548 142.056 327.422 142.118L229.543 189.908C229.429 189.964 229.302 189.993 229.173 189.993ZM180.522 163.809L229.18 188.428L325.378 141.458L276.719 116.84L180.522 163.809Z" fill="#262626"/>
<path d="M178.992 68.2178L81.1133 116.007L178.844 163.798L276.723 116.007L178.992 68.2178Z" fill="#2D404E"/>
<path d="M179.638 163.797H178.053V251.449H179.638V163.797Z" fill="#262626"/>
<path d="M124.006 111.668C123.875 111.669 123.747 111.631 123.64 111.56C123.503 111.47 123.41 111.333 123.382 111.18C123.354 111.027 123.392 110.869 123.489 110.743C123.607 110.59 135.071 95.2685 122.273 81.3009C120.008 78.8159 117.182 76.8188 113.994 75.4497C110.806 74.0807 107.333 73.3726 103.818 73.3753H103.645C104.861 77.2783 104.644 80.7485 102.923 83.4107C102.19 84.6137 101.108 85.6035 99.7987 86.2686C98.4897 86.9337 97.0059 87.2477 95.5143 87.1753C94.2796 87.0818 93.1012 86.6574 92.1234 85.9542C91.1456 85.251 90.4109 84.2994 90.0092 83.216C88.6017 79.822 90.0726 76.5312 93.9495 74.4103C96.4054 73.1582 99.1345 72.4326 101.935 72.287C101.024 70.0542 99.8392 67.9253 98.4042 65.9417C93.7833 59.4176 85.3617 54.9013 75.2979 53.5509C66.7691 52.4068 58.5955 53.7544 54.4719 56.983C54.3434 57.0834 54.1771 57.1326 54.0094 57.1197C53.8417 57.1068 53.6865 57.0328 53.5778 56.9141C53.4692 56.7953 53.416 56.6416 53.4299 56.4866C53.4439 56.3316 53.5239 56.188 53.6524 56.0876C58.0405 52.652 66.608 51.1995 75.4799 52.3934C85.9034 53.7925 94.6453 58.497 99.466 65.302C101.029 67.4602 102.3 69.787 103.251 72.2307C107.043 72.1465 110.808 72.8498 114.267 74.2889C117.725 75.7279 120.791 77.866 123.238 80.5456C136.68 95.2163 124.644 111.263 124.521 111.424C124.462 111.5 124.385 111.561 124.296 111.604C124.206 111.646 124.107 111.668 124.006 111.668ZM102.346 73.4181C99.6314 73.5252 96.9799 74.2103 94.5984 75.42C91.2518 77.2507 90.0124 79.9399 91.1966 82.7967C91.5175 83.6721 92.1074 84.442 92.8942 85.0123C93.6809 85.5826 94.6305 85.9285 95.6266 86.0078C96.8808 86.0597 98.1259 85.7881 99.2226 85.2233C100.319 84.6585 101.225 83.8228 101.837 82.8096C103.416 80.3644 103.561 77.1141 102.344 73.4181H102.346Z" fill="#292A2E"/>
<path d="M43.5245 66.4371C42.4466 66.7365 41.2849 66.6351 40.2867 66.1544C39.2885 65.6737 38.5327 64.8519 38.1802 63.8637C37.8277 62.8756 37.9064 61.7993 38.3995 60.864C38.8926 59.9287 39.7611 59.2083 40.8202 58.8562C41.8793 58.5041 43.0452 58.5481 44.0697 58.9788C45.0943 59.4095 45.8964 60.1929 46.3055 61.1622C46.7145 62.1316 46.6981 63.2102 46.2597 64.1685C45.8213 65.1268 44.9956 65.889 43.9583 66.2929C43.8167 66.3483 43.6718 66.3964 43.5245 66.4371ZM41.4154 59.9213C41.3127 59.9498 41.2117 59.9835 41.1129 60.0221C40.383 60.3066 39.8022 60.8432 39.494 61.5178C39.1859 62.1923 39.1748 62.9514 39.4631 63.6334C39.7514 64.3153 40.3163 64.8663 41.0375 65.169C41.7587 65.4716 42.5793 65.5019 43.3244 65.2536C44.0695 65.0052 44.6802 64.4977 45.0265 63.8392C45.3729 63.1807 45.4274 62.4232 45.1786 61.7281C44.9297 61.033 44.3971 60.4551 43.6942 60.1176C42.9913 59.7801 42.1737 59.7097 41.4154 59.9213Z" fill="#292A2E"/>
<path d="M43.5161 57.2487C42.4964 57.5302 41.4002 57.4532 40.4382 57.0327C39.4762 56.6122 38.7164 55.8777 38.3047 54.9706C37.9746 54.2434 37.8852 53.4419 38.0478 52.6677C38.2105 51.8935 38.6178 51.1813 39.2183 50.6211C39.8188 50.0609 40.5855 49.6779 41.4215 49.5206C42.2575 49.3632 43.1252 49.4386 43.9148 49.7372C44.7044 50.0357 45.3805 50.5441 45.8577 51.1979C46.3348 51.8517 46.5914 52.6216 46.5952 53.4102C46.599 54.1989 46.3497 54.9709 45.8788 55.6286C45.408 56.2862 44.7367 56.8001 43.95 57.105C43.8081 57.1599 43.6633 57.2078 43.5161 57.2487ZM41.4096 50.7322C41.3056 50.7611 41.2033 50.7949 41.1032 50.8337C40.3591 51.1226 39.7695 51.6729 39.4641 52.3635C39.1586 53.0541 39.1623 53.8286 39.4743 54.5167C39.7019 55.0184 40.0818 55.4483 40.568 55.7545C41.0543 56.0607 41.6262 56.2301 42.2144 56.2422C42.8026 56.2543 43.3821 56.1085 43.8826 55.8226C44.3831 55.5367 44.7833 55.1228 45.0347 54.631C45.2862 54.1392 45.3781 53.5907 45.2993 53.0516C45.2206 52.5126 44.9746 52.0062 44.5911 51.5937C44.2076 51.1811 43.703 50.8802 43.1384 50.7272C42.5738 50.5742 41.9733 50.5763 41.4096 50.7322Z" fill="#292A2E"/>
<path d="M42.2867 61.3957C45.4017 61.3957 47.9269 59.8365 47.9269 57.9132C47.9269 55.9898 45.4017 54.4307 42.2867 54.4307C39.1717 54.4307 36.6465 55.9898 36.6465 57.9132C36.6465 59.8365 39.1717 61.3957 42.2867 61.3957Z" fill="white"/>
<path d="M44.7822 61.6518C43.9735 61.8728 43.1345 61.9842 42.2913 61.9825C38.7722 61.9825 36.0117 60.1999 36.0117 57.9183C36.0117 55.6367 38.7639 53.8476 42.2818 53.8441C43.8155 53.8169 45.3244 54.2041 46.6236 54.9582C47.207 55.2392 47.6961 55.6627 48.0375 56.1825C48.379 56.7024 48.5598 57.2988 48.5604 57.907C48.561 58.5152 48.3813 59.112 48.0409 59.6324C47.7004 60.1528 47.2122 60.5771 46.6293 60.859C46.0594 61.2063 45.4369 61.4735 44.7822 61.6518ZM40.1759 55.296C38.4811 55.7651 37.2797 56.7778 37.2803 57.9154C37.2803 59.4851 39.5746 60.8098 42.2913 60.8074C43.5746 60.8324 44.838 60.5113 45.9271 59.8833C46.3356 59.7094 46.6815 59.4308 46.9239 59.0806C47.1662 58.7304 47.2948 58.3232 47.2944 57.9075C47.294 57.4918 47.1646 57.0849 46.9216 56.7351C46.6786 56.3853 46.3321 56.1072 45.9233 55.934C44.8334 55.3073 43.5694 54.9882 42.2862 55.0157C41.5718 55.014 40.8609 55.1084 40.1759 55.296Z" fill="#292A2E"/>
<path d="M43.6683 61.2895L43.5351 54.5167L41.7134 54.4487L41.5859 61.3686L43.6683 61.2895Z" fill="#292A2E"/>
<path d="M34.803 59.3867C35.1246 59.3867 35.3853 59.1457 35.3853 58.8484C35.3853 58.5511 35.1246 58.3101 34.803 58.3101C34.4814 58.3101 34.2207 58.5511 34.2207 58.8484C34.2207 59.1457 34.4814 59.3867 34.803 59.3867Z" fill="#292A2E"/>
<path d="M35.2581 56.5063C35.5797 56.5063 35.8404 56.2653 35.8404 55.968C35.8404 55.6707 35.5797 55.4297 35.2581 55.4297C34.9365 55.4297 34.6758 55.6707 34.6758 55.968C34.6758 56.2653 34.9365 56.5063 35.2581 56.5063Z" fill="#292A2E"/>
<path d="M223.671 77.8521C223.535 77.8521 223.403 77.8118 223.294 77.7372C223.184 77.6626 223.104 77.5576 223.064 77.4376C220.96 70.1745 220.399 62.6032 221.411 55.1427C223.051 44.236 229.558 29.9218 251.242 23.6539C254.294 22.747 257.423 22.0837 260.597 21.6713C261.619 15.7717 265.506 9.37195 274.199 4.95649C294.853 -5.53508 308.805 3.87813 308.943 3.9743C309.077 4.06761 309.166 4.20652 309.19 4.36048C309.214 4.51443 309.171 4.67082 309.07 4.79523C308.969 4.91965 308.819 5.0019 308.652 5.02389C308.485 5.04589 308.316 5.00582 308.182 4.91251C308.05 4.82103 294.717 -4.12776 274.811 5.985C266.688 10.1114 262.969 16.0339 261.912 21.5318C271.477 20.661 276.057 23.6105 278.113 25.8382C279.385 27.1778 280.202 28.8338 280.463 30.5998C280.724 32.3658 280.417 34.1638 279.58 35.7698C278.919 37.0678 277.848 38.1499 276.508 38.8732C275.167 39.5965 273.621 39.927 272.074 39.8211C266.732 39.5314 262.312 35.3775 260.813 29.238C260.319 27.1598 260.188 25.0218 260.424 22.9051C257.439 23.3016 254.494 23.9274 251.622 24.7762C234.721 29.6614 224.981 39.9343 222.667 55.3075C221.676 62.5987 222.223 69.9985 224.277 77.0975C224.306 77.1851 224.313 77.2779 224.296 77.3683C224.279 77.4587 224.24 77.5442 224.181 77.6179C224.122 77.6916 224.045 77.7515 223.956 77.7928C223.868 77.8341 223.77 77.8557 223.671 77.8557V77.8521ZM261.717 22.7585C261.453 24.8349 261.566 26.9374 262.051 28.9794C263.422 34.5958 267.385 38.3915 272.148 38.6501C273.446 38.7361 274.742 38.4573 275.866 37.8504C276.989 37.2435 277.889 36.3367 278.445 35.2491C279.17 33.8486 279.434 32.282 279.203 30.7441C278.972 29.2063 278.257 27.7652 277.146 26.6005C274.18 23.383 268.768 22.0836 261.717 22.7585Z" fill="#292A2E"/>
<path d="M323.718 9.90079C322.864 9.89914 322.027 9.67418 321.305 9.2519C320.583 8.82962 320.005 8.22721 319.638 7.51421C319.27 6.80122 319.128 6.00669 319.228 5.22233C319.329 4.43798 319.666 3.69577 320.203 3.08136C320.74 2.46696 321.454 2.00541 322.262 1.74998C323.071 1.49455 323.941 1.45565 324.772 1.63777C325.603 1.8199 326.362 2.21563 326.96 2.77928C327.559 3.34293 327.973 4.05153 328.154 4.8233C328.296 5.43509 328.289 6.06852 328.132 6.67723C327.975 7.28593 327.673 7.85449 327.248 8.34128C326.822 8.82807 326.285 9.22076 325.674 9.49059C325.063 9.76043 324.395 9.90059 323.718 9.90079ZM323.727 2.69766C323.053 2.69765 322.395 2.89108 321.844 3.25129C321.293 3.61151 320.877 4.12077 320.652 4.7089C320.428 5.29703 320.406 5.93506 320.59 6.53507C320.774 7.13508 321.155 7.66751 321.681 8.059C322.206 8.45048 322.849 8.68174 323.523 8.7209C324.196 8.76007 324.866 8.6052 325.44 8.27765C326.014 7.95011 326.464 7.466 326.728 6.89206C326.992 6.31812 327.057 5.68261 326.914 5.0731C326.76 4.39874 326.358 3.79428 325.778 3.36158C325.197 2.92889 324.473 2.69441 323.727 2.69766Z" fill="#292A2E"/>
<path d="M321.808 19.4711C320.646 19.4711 319.527 19.059 318.683 18.3197C317.84 17.5804 317.335 16.5701 317.272 15.4969C317.21 14.4237 317.595 13.3693 318.348 12.5506C319.101 11.7319 320.165 11.2113 321.321 11.096C322.477 10.9807 323.637 11.2795 324.561 11.9307C325.486 12.582 326.106 13.5363 326.292 14.5971C326.479 15.6579 326.219 16.7444 325.565 17.6331C324.911 18.5218 323.914 19.145 322.778 19.3744C322.459 19.4387 322.134 19.4711 321.808 19.4711ZM321.824 12.2674C321.589 12.2675 321.355 12.2909 321.126 12.3372C320.316 12.5017 319.605 12.947 319.139 13.5816C318.673 14.2161 318.488 14.9916 318.622 15.7484C318.756 16.5053 319.198 17.186 319.858 17.6504C320.518 18.1148 321.346 18.3277 322.171 18.2452C322.995 18.1627 323.755 17.7912 324.292 17.207C324.829 16.6228 325.104 15.8704 325.06 15.1046C325.015 14.3388 324.655 13.6179 324.053 13.0901C323.451 12.5624 322.654 12.2679 321.824 12.2674Z" fill="#292A2E"/>
<path d="M328.621 11.6141C329.021 9.61125 326.715 7.539 323.472 6.98565C320.228 6.4323 317.274 7.60739 316.874 9.61028C316.474 11.6132 318.78 13.6854 322.024 14.2387C325.268 14.7921 328.221 13.617 328.621 11.6141Z" fill="white"/>
<path d="M323.621 14.9627C323.046 14.9618 322.473 14.9128 321.908 14.8161C320.313 14.5714 318.83 13.9018 317.64 12.8892C317.119 12.4785 316.719 11.9531 316.476 11.3615C316.233 10.7699 316.155 10.1313 316.25 9.50462C316.404 8.88799 316.723 8.31708 317.178 7.84461C317.634 7.37215 318.21 7.01336 318.855 6.8014C320.364 6.27458 322 6.13913 323.586 6.40971C325.172 6.68028 326.648 7.34658 327.854 8.33655C328.375 8.74724 328.775 9.27266 329.018 9.86425C329.261 10.4558 329.339 11.0945 329.244 11.7212C329.09 12.3378 328.771 12.9087 328.316 13.3812C327.86 13.8536 327.284 14.2124 326.639 14.4244C325.682 14.7903 324.656 14.9734 323.621 14.9627ZM321.869 7.43469C321.007 7.42456 320.153 7.57555 319.356 7.87858C318.906 8.01806 318.5 8.25925 318.175 8.58034C317.851 8.90143 317.618 9.29227 317.498 9.71748C317.446 10.1543 317.512 10.5961 317.692 11.0031C317.871 11.4101 318.157 11.7694 318.524 12.0484C319.55 12.8762 320.798 13.4336 322.137 13.6621C323.477 13.8907 324.858 13.7819 326.136 13.3472C326.586 13.2077 326.993 12.9665 327.317 12.6454C327.642 12.3243 327.874 11.9335 327.994 11.5083C328.047 11.0715 327.98 10.6295 327.801 10.2225C327.622 9.81542 327.335 9.4562 326.968 9.17742C325.958 8.32586 324.702 7.76487 323.352 7.56311C322.864 7.479 322.368 7.43602 321.871 7.43469H321.869Z" fill="#292A2E"/>
<path d="M322.016 6.85059L320.74 13.9259L322.622 14.3223L324.2 7.13967L322.016 6.85059Z" fill="#292A2E"/>
<path d="M329.661 14.4622C330.002 14.4622 330.278 14.207 330.278 13.8922C330.278 13.5774 330.002 13.3223 329.661 13.3223C329.321 13.3223 329.045 13.5774 329.045 13.8922C329.045 14.207 329.321 14.4622 329.661 14.4622Z" fill="#292A2E"/>
<path d="M330.736 11.5442C331.076 11.5442 331.352 11.289 331.352 10.9743C331.352 10.6595 331.076 10.4043 330.736 10.4043C330.395 10.4043 330.119 10.6595 330.119 10.9743C330.119 11.289 330.395 11.5442 330.736 11.5442Z" fill="#292A2E"/>
</g>
<defs>
<clipPath id="clip0_318_2275">
<rect width="354" height="279" fill="white"/>
</clipPath>
</defs>
</svg>
