<svg width="1072" height="572" viewBox="0 0 1072 572" fill="none" xmlns="http://www.w3.org/2000/svg">
<g clip-path="url(#clip0_826_3377)">
<path d="M1066.06 33.9141H5.9381C4.36375 33.9128 2.85437 33.4591 1.74113 32.6525C0.627899 31.8459 0.0017284 30.7522 7.62939e-06 29.6115V4.30256C0.0017284 3.16183 0.627899 2.06818 1.74113 1.26156C2.85437 0.45494 4.36375 0.00124426 5.9381 0H1066.06C1067.64 0.00124683 1069.15 0.454955 1070.26 1.26157C1071.37 2.06819 1072 3.16184 1072 4.30256V29.6115C1072 30.7523 1071.37 31.8459 1070.26 32.6525C1069.15 33.4591 1067.64 33.9128 1066.06 33.9141Z" fill="#E4E4E4"/>
<path d="M34.4613 21.8309C39.1174 21.8309 42.8919 19.096 42.8919 15.7224C42.8919 12.3487 39.1174 9.61377 34.4613 9.61377C29.8052 9.61377 26.0307 12.3487 26.0307 15.7224C26.0307 19.096 29.8052 21.8309 34.4613 21.8309Z" fill="white"/>
<path d="M66.4611 21.8309C71.1172 21.8309 74.8917 19.096 74.8917 15.7224C74.8917 12.3487 71.1172 9.61377 66.4611 9.61377C61.805 9.61377 58.0305 12.3487 58.0305 15.7224C58.0305 19.096 61.805 21.8309 66.4611 21.8309Z" fill="white"/>
<path d="M98.4623 21.8309C103.118 21.8309 106.893 19.096 106.893 15.7224C106.893 12.3487 103.118 9.61377 98.4623 9.61377C93.8063 9.61377 90.0317 12.3487 90.0317 15.7224C90.0317 19.096 93.8063 21.8309 98.4623 21.8309Z" fill="white"/>
<path d="M1034.71 11.518H997.86C997.137 11.5169 996.444 11.308 995.934 10.9372C995.423 10.5664 995.137 10.064 995.137 9.54025C995.137 9.01647 995.423 8.5141 995.934 8.14332C996.444 7.77255 997.137 7.56366 997.86 7.5625H1034.71C1035.43 7.56212 1036.13 7.76982 1036.64 8.13996C1037.15 8.51009 1037.44 9.01241 1037.44 9.53654C1037.44 10.0607 1037.16 10.5638 1036.65 10.9353C1036.14 11.3068 1035.44 11.5164 1034.72 11.518H1034.71Z" fill="white"/>
<path d="M1034.71 18.9345H997.86C997.137 18.9334 996.444 18.7245 995.934 18.3537C995.423 17.9829 995.137 17.4805 995.137 16.9568C995.137 16.433 995.423 15.9306 995.934 15.5598C996.444 15.189 997.137 14.9802 997.86 14.979H1034.71C1035.43 14.9786 1036.13 15.1863 1036.64 15.5565C1037.15 15.9266 1037.44 16.4289 1037.44 16.953C1037.44 17.4772 1037.16 17.9803 1036.65 18.3518C1036.14 18.7233 1035.44 18.9329 1034.72 18.9345H1034.71Z" fill="white"/>
<path d="M1034.71 26.3515H997.86C997.136 26.3515 996.442 26.1431 995.93 25.7722C995.418 25.4013 995.13 24.8983 995.13 24.3738C995.13 23.8492 995.418 23.3462 995.93 22.9753C996.442 22.6044 997.136 22.396 997.86 22.396H1034.71C1035.43 22.395 1036.13 22.6024 1036.64 22.9726C1037.15 23.3428 1037.44 23.8455 1037.44 24.37C1037.44 24.8946 1037.16 25.398 1036.65 25.7696C1036.14 26.1412 1035.44 26.3505 1034.72 26.3515H1034.71Z" fill="white"/>
<path d="M302.28 502.929C306.181 480.201 325.621 457.807 355.537 450.41C343.739 473.804 343.741 499.467 355.544 522.86C360.141 531.869 366.548 541.543 362.224 550.624C359.534 556.274 352.953 560.596 345.596 563.299C338.239 566.002 330.074 567.29 322.011 568.553L320.424 569.504C307.625 548.562 298.379 525.657 302.28 502.929Z" fill="#F0F0F0"/>
<path d="M355.834 450.84C338.412 464.984 327.584 482.745 324.888 501.602C324.208 505.654 324.414 509.758 325.498 513.763C326.728 517.64 329.368 521.208 333.144 524.096C336.591 526.84 340.555 529.357 343.021 532.66C344.249 534.364 344.965 536.238 345.124 538.157C345.282 540.076 344.879 541.997 343.941 543.796C341.764 548.32 337.472 552.008 333.103 555.509C328.251 559.396 323.127 563.378 321.065 568.532C320.815 569.156 319.493 568.839 319.742 568.215C323.33 559.249 335.342 554.156 341.07 546.081C343.743 542.313 344.865 537.938 342.359 533.96C340.168 530.482 336.084 527.884 332.561 525.127C328.82 522.35 326.074 518.95 324.564 515.226C323.203 511.274 322.779 507.182 323.312 503.127C324.31 493.982 327.286 485.009 332.132 476.534C337.588 466.841 345.292 457.894 354.912 450.083C355.508 449.6 356.425 450.36 355.834 450.84Z" fill="white"/>
<path d="M325.263 495.493C320.958 494.735 317.165 492.894 314.561 490.297C311.957 487.701 310.711 484.518 311.047 481.317C311.062 481.187 311.147 481.066 311.283 480.98C311.419 480.894 311.596 480.849 311.776 480.856C311.957 480.862 312.127 480.919 312.25 481.015C312.374 481.11 312.441 481.237 312.439 481.368C312.119 484.348 313.279 487.312 315.711 489.727C318.143 492.141 321.685 493.846 325.7 494.534C326.572 494.684 326.13 495.642 325.263 495.493Z" fill="white"/>
<path d="M331.144 522.871C338.919 519.508 344.659 514.144 347.219 507.85C347.472 507.226 348.794 507.543 348.542 508.166C345.861 514.712 339.872 520.285 331.771 523.773C330.998 524.105 330.376 523.202 331.144 522.871Z" fill="white"/>
<path d="M338.88 467.796C340.462 468.341 342.205 468.592 343.954 468.528C345.702 468.464 347.401 468.086 348.898 467.428C349.665 467.089 350.286 467.993 349.525 468.329C347.866 469.051 345.989 469.466 344.057 469.541C342.126 469.615 340.198 469.345 338.443 468.755C338.272 468.709 338.13 468.618 338.048 468.5C337.966 468.381 337.949 468.245 338 468.117C338.059 467.991 338.184 467.886 338.349 467.826C338.514 467.766 338.705 467.755 338.88 467.796Z" fill="white"/>
<path d="M446.723 491.005C446.253 491.227 445.783 491.448 445.312 491.678C439.012 494.68 433.059 498.048 427.511 501.748C427.076 502.029 426.641 502.319 426.217 502.609C412.983 511.627 402.175 522.347 394.342 534.224C391.231 538.953 388.621 543.846 386.535 548.861C383.654 555.787 381.291 563.463 375.588 569.128C375.002 569.724 374.366 570.293 373.683 570.832H322.148C322.031 570.79 321.913 570.756 321.796 570.713L319.738 570.781C319.821 570.517 319.914 570.244 319.997 569.98C320.044 569.827 320.103 569.674 320.15 569.52C320.185 569.418 320.22 569.316 320.244 569.222C320.255 569.188 320.267 569.154 320.279 569.128C320.303 569.035 320.338 568.95 320.362 568.864C320.879 567.339 321.412 565.814 321.961 564.289C321.961 564.281 321.961 564.281 321.972 564.272C325.999 552.623 331.92 541.361 339.609 530.723C339.844 530.408 340.079 530.084 340.338 529.769C343.899 525.059 347.984 520.569 352.555 516.342C355.067 514.033 357.74 511.818 360.562 509.705C367.868 504.256 376.311 499.673 385.582 496.125C404.066 489.054 425.465 486.345 445.218 490.664C445.724 490.775 446.218 490.886 446.723 491.005Z" fill="#F0F0F0"/>
<path d="M446.607 491.479C420.945 495.172 397.541 504.63 379.72 518.51C375.81 521.449 372.564 524.815 370.101 528.486C367.861 532.119 367.005 536.119 367.621 540.072C368.093 543.767 369.166 547.506 368.39 551.219C367.954 553.115 366.97 554.923 365.502 556.525C364.034 558.126 362.115 559.485 359.872 560.511C354.374 563.174 347.883 564.247 341.485 565.136C334.382 566.123 326.982 567.067 321.053 570.282C320.335 570.672 319.543 569.841 320.26 569.452C330.575 563.859 344.397 565.033 355.681 561.084C360.946 559.241 365.477 556.238 366.782 551.969C367.922 548.235 366.82 544.379 366.297 540.641C365.619 536.791 366.251 532.879 368.14 529.247C370.337 525.497 373.399 522.046 377.194 519.04C385.589 512.174 395.422 506.308 406.332 501.655C418.744 496.295 432.329 492.513 446.5 490.473C447.378 490.347 447.479 491.354 446.607 491.479Z" fill="white"/>
<path d="M385.095 513.796C382.287 511.313 380.788 508.188 380.867 504.979C380.945 501.77 382.595 498.685 385.523 496.276C386.118 495.79 387.188 496.437 386.592 496.923C383.86 499.163 382.324 502.036 382.259 505.025C382.194 508.014 383.606 510.92 386.24 513.221C386.812 513.721 385.663 514.293 385.095 513.796Z" fill="white"/>
<path d="M367.041 538.222C376.044 538.928 385.084 537.149 392.357 533.24C393.078 532.853 393.87 533.683 393.151 534.07C385.571 538.127 376.159 539.964 366.792 539.215C365.899 539.143 366.153 538.15 367.041 538.222Z" fill="white"/>
<path d="M418.981 497.623C419.791 498.747 420.974 499.708 422.424 500.42C423.874 501.131 425.544 501.571 427.286 501.699C428.18 501.762 427.925 502.755 427.038 502.692C425.114 502.544 423.269 502.057 421.665 501.274C420.061 500.49 418.747 499.434 417.836 498.197C417.737 498.086 417.7 497.951 417.732 497.821C417.765 497.691 417.865 497.574 418.012 497.495C418.164 497.42 418.351 497.391 418.533 497.414C418.714 497.438 418.875 497.513 418.981 497.623Z" fill="white"/>
<path d="M347.467 176.467H176.965C171.696 176.463 166.645 174.944 162.919 172.245C159.194 169.545 157.098 165.885 157.092 162.067V94.7808C157.098 90.9632 159.194 87.3032 162.919 84.6038C166.645 81.9043 171.696 80.386 176.965 80.3818H347.467C352.736 80.386 357.787 81.9043 361.513 84.6038C365.238 87.3032 367.334 90.9632 367.34 94.7808V162.067C367.334 165.885 365.239 169.545 361.513 172.245C357.787 174.944 352.736 176.463 347.467 176.467Z" fill="#E6E6E6"/>
<path d="M607.774 176.467H437.272C432.003 176.463 426.952 174.944 423.226 172.245C419.5 169.545 417.405 165.885 417.399 162.067V94.7808C417.405 90.9632 419.501 87.3032 423.226 84.6038C426.952 81.9043 432.003 80.386 437.272 80.3818H607.774C613.043 80.386 618.094 81.9043 621.82 84.6038C625.545 87.3032 627.641 90.9632 627.647 94.7808V162.067C627.641 165.885 625.545 169.545 621.82 172.245C618.094 174.944 613.043 176.463 607.774 176.467Z" fill="#1574FF"/>
<path d="M868.081 176.467H697.579C692.31 176.463 687.259 174.944 683.533 172.245C679.807 169.545 677.712 165.885 677.706 162.067V94.7808C677.712 90.9632 679.807 87.3032 683.533 84.6038C687.259 81.9043 692.31 80.386 697.579 80.3818H868.081C873.349 80.386 878.401 81.9043 882.126 84.6038C885.852 87.3032 887.948 90.9632 887.954 94.7808V162.067C887.948 165.885 885.852 169.545 882.126 172.245C878.401 174.944 873.35 176.463 868.081 176.467Z" fill="#E6E6E6"/>
<path d="M347.467 326.389H176.965C171.696 326.385 166.645 324.866 162.919 322.166C159.194 319.467 157.098 315.807 157.092 311.989V244.703C157.098 240.885 159.194 237.225 162.919 234.526C166.645 231.826 171.696 230.308 176.965 230.304H347.467C352.736 230.308 357.787 231.826 361.513 234.526C365.238 237.225 367.334 240.885 367.34 244.703V311.989C367.334 315.807 365.239 319.467 361.513 322.166C357.787 324.866 352.736 326.385 347.467 326.389Z" fill="#F2F2F2"/>
<path d="M607.774 326.389H437.272C432.003 326.385 426.952 324.866 423.226 322.166C419.5 319.467 417.405 315.807 417.399 311.989V244.703C417.405 240.885 419.501 237.225 423.226 234.526C426.952 231.826 432.003 230.308 437.272 230.304H607.774C613.043 230.308 618.094 231.826 621.82 234.526C625.545 237.225 627.641 240.885 627.647 244.703V311.989C627.641 315.807 625.545 319.467 621.82 322.166C618.094 324.866 613.043 326.385 607.774 326.389Z" fill="#E6E6E6"/>
<path d="M619.813 338.77C636.631 338.77 650.265 328.892 650.265 316.705C650.265 304.519 636.631 294.641 619.813 294.641C602.994 294.641 589.36 304.519 589.36 316.705C589.36 328.892 602.994 338.77 619.813 338.77Z" fill="#1574FF"/>
<path d="M632.458 314.853H622.104V307.351C622.104 307.119 622.041 306.889 621.919 306.675C621.797 306.461 621.617 306.266 621.391 306.103C621.165 305.939 620.896 305.809 620.6 305.72C620.305 305.631 619.988 305.585 619.668 305.585C619.348 305.585 619.031 305.631 618.736 305.72C618.44 305.809 618.172 305.939 617.945 306.103C617.719 306.266 617.54 306.461 617.417 306.675C617.295 306.889 617.232 307.119 617.232 307.351V314.853H606.878C606.558 314.853 606.241 314.898 605.946 314.987C605.65 315.076 605.382 315.206 605.155 315.37C604.929 315.534 604.75 315.728 604.627 315.943C604.505 316.157 604.442 316.386 604.442 316.618C604.442 316.85 604.505 317.079 604.627 317.294C604.75 317.508 604.929 317.702 605.155 317.866C605.382 318.03 605.65 318.16 605.946 318.249C606.241 318.338 606.558 318.383 606.878 318.383H617.232V325.885C617.232 326.117 617.295 326.347 617.417 326.561C617.54 326.775 617.719 326.97 617.945 327.134C618.172 327.298 618.44 327.428 618.736 327.516C619.031 327.605 619.348 327.651 619.668 327.651C620.314 327.651 620.934 327.465 621.391 327.134C621.848 326.803 622.104 326.354 622.104 325.885V318.383H632.458C632.778 318.383 633.095 318.338 633.39 318.249C633.686 318.16 633.955 318.03 634.181 317.866C634.407 317.702 634.586 317.508 634.709 317.294C634.831 317.079 634.894 316.85 634.894 316.618C634.894 316.386 634.831 316.157 634.709 315.942C634.586 315.728 634.407 315.534 634.181 315.37C633.955 315.206 633.686 315.076 633.39 314.987C633.095 314.898 632.778 314.853 632.458 314.853Z" fill="white"/>
<path d="M884.124 192.718C900.942 192.718 914.576 182.839 914.576 170.653C914.576 158.467 900.942 148.588 884.124 148.588C867.306 148.588 853.672 158.467 853.672 170.653C853.672 182.839 867.306 192.718 884.124 192.718Z" fill="#1574FF"/>
<path d="M896.77 168.8H886.416V161.298C886.416 161.066 886.353 160.837 886.23 160.622C886.108 160.408 885.929 160.214 885.702 160.05C885.476 159.886 885.208 159.756 884.912 159.667C884.616 159.578 884.3 159.533 883.98 159.533C883.66 159.533 883.343 159.578 883.047 159.667C882.752 159.756 882.483 159.886 882.257 160.05C882.031 160.214 881.851 160.408 881.729 160.622C881.606 160.837 881.543 161.066 881.543 161.298V168.8H871.19C870.87 168.8 870.553 168.846 870.257 168.934C869.962 169.023 869.693 169.153 869.467 169.317C869.241 169.481 869.061 169.676 868.939 169.89C868.816 170.104 868.753 170.334 868.753 170.565C868.753 170.797 868.816 171.027 868.939 171.241C869.061 171.455 869.241 171.65 869.467 171.814C869.693 171.978 869.962 172.108 870.257 172.196C870.553 172.285 870.87 172.331 871.19 172.331H881.543V179.833C881.543 180.065 881.606 180.294 881.729 180.508C881.851 180.722 882.031 180.917 882.257 181.081C882.483 181.245 882.752 181.375 883.047 181.464C883.343 181.552 883.66 181.598 883.98 181.598C884.626 181.598 885.246 181.412 885.702 181.081C886.159 180.75 886.416 180.301 886.416 179.833V172.331H896.77C897.089 172.331 897.406 172.285 897.702 172.196C897.997 172.108 898.266 171.977 898.492 171.814C898.718 171.65 898.898 171.455 899.02 171.241C899.143 171.027 899.206 170.797 899.206 170.565C899.206 170.333 899.143 170.104 899.02 169.89C898.898 169.676 898.718 169.481 898.492 169.317C898.266 169.153 897.997 169.023 897.702 168.934C897.406 168.846 897.09 168.8 896.77 168.8Z" fill="white"/>
<path d="M359.506 190.783C376.324 190.783 389.958 180.904 389.958 168.718C389.958 156.532 376.324 146.653 359.506 146.653C342.688 146.653 329.054 156.532 329.054 168.718C329.054 180.904 342.688 190.783 359.506 190.783Z" fill="#1574FF"/>
<path d="M372.151 166.866H361.798V159.363C361.798 159.132 361.735 158.902 361.612 158.688C361.49 158.474 361.31 158.279 361.084 158.115C360.858 157.951 360.589 157.821 360.294 157.733C359.998 157.644 359.681 157.598 359.361 157.598C359.041 157.598 358.724 157.644 358.429 157.733C358.133 157.821 357.865 157.951 357.638 158.115C357.412 158.279 357.233 158.474 357.11 158.688C356.988 158.902 356.925 159.132 356.925 159.363V166.866H346.571C346.251 166.866 345.934 166.911 345.639 167C345.343 167.089 345.075 167.219 344.848 167.383C344.622 167.546 344.443 167.741 344.32 167.955C344.198 168.169 344.135 168.399 344.135 168.631C344.135 169.099 344.392 169.548 344.848 169.879C345.305 170.21 345.925 170.396 346.571 170.396H356.925V177.898C356.925 178.13 356.988 178.36 357.11 178.574C357.233 178.788 357.412 178.982 357.638 179.146C357.865 179.31 358.133 179.44 358.429 179.529C358.724 179.618 359.041 179.663 359.361 179.663C359.681 179.663 359.998 179.618 360.294 179.529C360.589 179.44 360.858 179.31 361.084 179.146C361.31 178.982 361.49 178.788 361.612 178.574C361.735 178.36 361.798 178.13 361.798 177.898V170.396H372.151C372.471 170.396 372.788 170.35 373.084 170.262C373.379 170.173 373.648 170.043 373.874 169.879C374.1 169.715 374.28 169.52 374.402 169.306C374.525 169.092 374.588 168.863 374.588 168.631C374.588 168.163 374.331 167.714 373.874 167.382C373.417 167.051 372.797 166.866 372.151 166.866Z" fill="white"/>
<path d="M587.495 138.237C588.051 139.455 588.231 140.746 588.023 142.02C587.816 143.293 587.225 144.519 586.294 145.609C585.362 146.699 584.112 147.629 582.631 148.331C581.15 149.033 579.474 149.492 577.722 149.675L563.641 219.316L540.543 211.142L563.776 141.627C563.548 139.474 564.418 137.335 566.221 135.616C568.023 133.897 570.634 132.716 573.558 132.299C576.481 131.881 579.515 132.255 582.084 133.349C584.652 134.444 586.578 136.183 587.495 138.237Z" fill="#9E616A"/>
<path d="M419.315 361.282C420.343 360.238 421.043 359.044 421.365 357.782C421.687 356.521 421.624 355.224 421.179 353.983C420.735 352.742 419.92 351.586 418.793 350.597C417.665 349.609 416.252 348.811 414.653 348.261L424.153 274.184L404.256 281.574L398.044 352.957C396.946 354.964 396.903 357.194 397.923 359.222C398.943 361.251 400.954 362.939 403.576 363.965C406.198 364.991 409.248 365.285 412.149 364.79C415.05 364.296 417.599 363.048 419.315 361.282Z" fill="#9E616A"/>
<path d="M432.908 323.816L518.29 321.436L523.215 257.191H424.698L432.908 323.816Z" fill="#9E616A"/>
<path d="M417.061 550.702L431.651 550.701L438.592 509.925H417.058L417.061 550.702Z" fill="#9E616A"/>
<path d="M413.442 545.486L436.506 544.489V551.649L458.434 562.622C459.517 563.164 460.333 563.942 460.762 564.844C461.191 565.745 461.211 566.723 460.82 567.633C460.428 568.544 459.645 569.34 458.584 569.905C457.524 570.47 456.242 570.775 454.926 570.775H427.467L422.734 563.692L420.887 570.775H410.534L413.442 545.486Z" fill="#2F2E41"/>
<path d="M481.956 550.702L496.547 550.701L503.487 509.925H481.953L481.956 550.702Z" fill="#9E616A"/>
<path d="M431.723 308.734C431.723 308.734 406.176 323.678 420.025 377.049C417.916 377.231 420.304 380.243 420.304 380.243L422.302 423.729L423.847 428.713L418.713 436.756L420.829 445.494L414.304 524.799L438.409 527.058L461.476 444.704L465.869 435.445L470.276 427.329L467.899 418.674L469.848 405.241L483.146 359.947L486.402 438.504L481.859 446.003L484.387 454.236L478.755 458.606L476.529 532.107L502.232 532.978L523.499 458.884L521.85 449.429L524.679 442.438V426.108L529.525 418.401L540.089 376.377C540.089 376.377 543.276 343.531 520.023 304.88L431.723 308.734Z" fill="#2F2E41"/>
<path d="M442.135 203.798C442.135 203.798 409.868 208.422 404.308 228.361C398.748 248.299 395.171 293.42 395.171 293.42L396.389 299.703L427.601 304.947L447.523 241.726L442.135 203.798Z" fill="#3F3D56"/>
<path d="M515.772 210.528C515.772 210.528 519.043 207.207 537.359 206.695C538.113 206.674 537.18 205.59 537.18 205.59L545.988 174.394L575.344 186.17L570.388 218.875L522.151 258.629L515.772 210.528Z" fill="#3F3D56"/>
<path d="M497.474 303.528C483.655 303.529 462.852 302.424 431.536 299.055C429.519 298.835 427.652 298.153 426.207 297.109C424.763 296.065 423.817 294.714 423.508 293.253C422.485 292.471 421.82 291.479 421.602 290.413C421.385 289.347 421.625 288.258 422.292 287.295L422.321 287.253L421.611 286.647C420.514 285.713 419.869 284.544 419.776 283.32C419.683 282.095 420.146 280.882 421.095 279.866L411.396 229.594C410.412 224.602 411.919 219.519 415.645 215.259C419.371 211 425.073 207.844 431.724 206.359L435.304 205.552L448.843 192.72L449.11 192.722L492.576 193.141L506.681 206.12L529.483 210.015L529.542 210.267L534.836 232.43C537.589 243.958 531.275 248.492 523.215 258.629L525.581 287.099L526.654 288.512C527.249 289.294 527.449 290.203 527.218 291.08C526.987 291.958 526.34 292.749 525.388 293.317C526.108 294.806 526.157 296.422 525.529 297.933L524.971 299.269C524.972 299.307 524.823 299.85 523.619 300.512C521.449 301.707 515.216 303.528 497.474 303.528Z" fill="#3F3D56"/>
<path d="M478.337 545.486L501.401 544.489V551.649L523.329 562.622C524.412 563.164 525.228 563.942 525.657 564.844C526.086 565.745 526.107 566.723 525.715 567.633C525.323 568.544 524.54 569.34 523.48 569.905C522.42 570.47 521.138 570.775 519.822 570.775H492.363L487.63 563.692L485.782 570.775H475.429L478.337 545.486Z" fill="#2F2E41"/>
<path d="M502.561 164.757C505.575 151.297 492.96 138.615 474.383 136.431C455.807 134.246 438.304 143.387 435.29 156.847C432.275 170.307 444.891 182.989 463.467 185.174C482.043 187.358 499.546 178.217 502.561 164.757Z" fill="#9E616A"/>
<path d="M488.851 136.676C476.362 130.453 465.363 129.505 456.329 131.27C455.158 129.957 453.516 128.901 451.578 128.213C444.532 115.349 423.089 107.623 404.687 111.379C386.166 115.159 373.387 130.024 376.872 143.736C379.031 152.235 386.413 159.594 389.383 167.964C395.13 184.167 381.109 202.727 359.175 207.95C379.943 210.971 402.803 201.78 410.254 187.412C413.872 180.433 414.091 172.814 414.551 165.367C414.672 160.226 415.541 155.109 417.144 150.101C417.939 147.854 419.063 145.675 420.497 143.601C423.619 139.041 428.805 135.396 435.189 133.273C434.617 134.554 434.474 135.915 434.772 137.244C435.069 138.573 435.799 139.832 436.9 140.916C432.029 145.337 429.378 150.118 429.378 152.981C419.26 166.38 433.729 177.889 452.221 185.22C459.597 188.159 468.114 189.235 476.427 188.277L477.201 185.884L478.249 188.04L481.748 195.266C485.784 196.681 489.786 198.232 493.753 199.919C492.246 194.791 491.027 189.673 490.188 184.669C489.026 177.857 493.075 167.717 495.995 161.551C497.806 157.75 498.736 153.759 498.746 149.738V149.562L501.59 156.181L511.943 152.981C510.017 144.976 511.943 135.888 488.851 136.676Z" fill="#2F2E41"/>
<path d="M914.642 572H157.358C156.938 571.999 156.535 571.877 156.239 571.661C155.943 571.445 155.776 571.153 155.776 570.848C155.776 570.544 155.943 570.252 156.239 570.036C156.535 569.82 156.938 569.698 157.358 569.697H914.642C915.062 569.698 915.465 569.82 915.761 570.036C916.057 570.252 916.224 570.544 916.224 570.848C916.224 571.153 916.057 571.445 915.761 571.661C915.465 571.877 915.062 571.999 914.642 572Z" fill="#CCCCCC"/>
<path d="M356.025 341.67C372.843 341.67 386.477 331.791 386.477 319.605C386.477 307.419 372.843 297.54 356.025 297.54C339.206 297.54 325.573 307.419 325.573 319.605C325.573 331.791 339.206 341.67 356.025 341.67Z" fill="#E6E6E6"/>
<path d="M814.212 306.924H707.402C704.101 306.921 700.937 305.97 698.603 304.279C696.269 302.588 694.956 300.295 694.952 297.903V255.752C694.956 253.361 696.269 251.068 698.603 249.377C700.937 247.686 704.101 246.735 707.402 246.732H814.212C817.512 246.735 820.676 247.686 823.01 249.377C825.344 251.068 826.657 253.361 826.661 255.752V297.903C826.657 300.295 825.344 302.588 823.01 304.279C820.677 305.97 817.512 306.921 814.212 306.924Z" fill="#F2F2F2"/>
<path d="M815.785 289.802C824.717 289.802 831.957 284.556 831.957 278.085C831.957 271.613 824.717 266.367 815.785 266.367C806.854 266.367 799.613 271.613 799.613 278.085C799.613 284.556 806.854 289.802 815.785 289.802Z" fill="#1574FF"/>
<path d="M822.501 277.101H817.002V273.117C817.002 272.994 816.969 272.872 816.904 272.758C816.839 272.644 816.743 272.541 816.623 272.454C816.503 272.367 816.36 272.298 816.203 272.251C816.046 272.203 815.878 272.179 815.708 272.179C815.365 272.179 815.036 272.278 814.793 272.454C814.551 272.63 814.414 272.868 814.414 273.117V277.101H808.916C808.573 277.101 808.244 277.199 808.001 277.375C807.759 277.551 807.622 277.79 807.622 278.038C807.622 278.161 807.656 278.283 807.721 278.397C807.786 278.511 807.881 278.614 808.001 278.701C808.121 278.788 808.264 278.857 808.421 278.904C808.578 278.951 808.746 278.976 808.916 278.976H814.415V282.96C814.415 283.083 814.448 283.205 814.513 283.318C814.578 283.432 814.673 283.535 814.793 283.622C814.914 283.71 815.056 283.779 815.213 283.826C815.37 283.873 815.538 283.897 815.708 283.897C816.052 283.897 816.381 283.798 816.623 283.622C816.866 283.447 817.002 283.208 817.002 282.96V278.976H822.501C822.844 278.976 823.173 278.877 823.416 278.701C823.658 278.525 823.794 278.287 823.794 278.038C823.794 277.915 823.761 277.793 823.696 277.679C823.631 277.566 823.536 277.462 823.416 277.375C823.295 277.288 823.153 277.219 822.996 277.172C822.839 277.125 822.67 277.101 822.501 277.101Z" fill="white"/>
<path d="M857.727 294.962H769.705C765.97 294.959 762.388 293.882 759.746 291.968C757.105 290.054 755.619 287.459 755.614 284.752V246.682C755.616 246.184 755.89 245.706 756.377 245.355C756.863 245.003 757.523 244.805 758.21 244.805C758.898 244.805 759.557 245.003 760.044 245.355C760.531 245.706 760.805 246.184 760.806 246.682V256.878L863.048 263.612C865.09 263.638 867.037 264.244 868.469 265.299C869.901 266.354 870.705 267.775 870.707 269.254C870.707 269.371 870.692 269.487 870.662 269.601L865.51 289.511C865.439 290.973 864.588 292.358 863.137 293.375C861.685 294.391 859.745 294.96 857.727 294.962ZM760.807 260.655V284.752C760.809 286.462 761.748 288.101 763.416 289.309C765.084 290.518 767.346 291.198 769.706 291.2H857.727C858.415 291.199 859.075 291.001 859.562 290.648C860.048 290.296 860.322 289.818 860.323 289.319C860.323 289.203 860.338 289.087 860.367 288.972L865.507 269.109C865.456 268.637 865.161 268.196 864.682 267.875C864.202 267.553 863.573 267.374 862.919 267.373C862.84 267.373 862.762 267.371 862.684 267.365L760.807 260.655Z" fill="#1574FF"/>
<path d="M746.316 312.519C748.706 312.519 750.643 311.115 750.643 309.384C750.643 307.652 748.706 306.249 746.316 306.249C743.927 306.249 741.99 307.652 741.99 309.384C741.99 311.115 743.927 312.519 746.316 312.519Z" fill="#1574FF"/>
<path d="M854.265 312.519C856.655 312.519 858.592 311.115 858.592 309.384C858.592 307.652 856.655 306.249 854.265 306.249C851.876 306.249 849.938 307.652 849.938 309.384C849.938 311.115 851.876 312.519 854.265 312.519Z" fill="#1574FF"/>
<path d="M858.592 306.248H742.855C742.166 306.248 741.506 306.05 741.019 305.697C740.532 305.345 740.259 304.866 740.259 304.367C740.259 303.868 740.532 303.39 741.019 303.037C741.506 302.685 742.166 302.486 742.855 302.486H858.592C859.28 302.486 859.941 302.685 860.428 303.037C860.915 303.39 861.188 303.868 861.188 304.367C861.188 304.866 860.915 305.345 860.428 305.697C859.941 306.05 859.28 306.248 858.592 306.248Z" fill="#1574FF"/>
<path d="M765.133 247.936H742.634C741.947 247.935 741.288 247.736 740.802 247.383C740.317 247.031 740.044 246.553 740.044 246.055C740.044 245.557 740.317 245.079 740.802 244.726C741.288 244.374 741.947 244.175 742.634 244.174H765.133C765.821 244.175 766.48 244.374 766.965 244.726C767.451 245.079 767.724 245.557 767.724 246.055C767.724 246.553 767.451 247.031 766.965 247.383C766.48 247.736 765.821 247.935 765.133 247.936Z" fill="#1574FF"/>
<path d="M783.183 305.291C782.562 305.291 781.962 305.13 781.492 304.837L764.429 294.212C764.169 294.051 763.956 293.855 763.802 293.634C763.647 293.413 763.554 293.173 763.528 292.926C763.502 292.68 763.543 292.432 763.649 292.197C763.756 291.962 763.925 291.744 764.147 291.557C764.37 291.369 764.641 291.215 764.946 291.103C765.251 290.992 765.583 290.925 765.923 290.907C766.263 290.888 766.606 290.919 766.93 290.996C767.254 291.074 767.554 291.197 767.812 291.358L784.876 301.983C785.278 302.234 785.565 302.567 785.698 302.939C785.83 303.311 785.803 303.704 785.618 304.064C785.434 304.424 785.102 304.735 784.666 304.954C784.231 305.174 783.713 305.291 783.183 305.291Z" fill="#1574FF"/>
<path d="M786.778 293.807C786.437 293.807 786.1 293.758 785.785 293.663C785.47 293.569 785.184 293.43 784.943 293.256C784.702 293.081 784.51 292.874 784.38 292.645C784.249 292.417 784.182 292.173 784.182 291.926V261.73C784.182 261.231 784.456 260.753 784.943 260.4C785.43 260.047 786.09 259.849 786.778 259.849C787.467 259.849 788.127 260.047 788.614 260.4C789.101 260.753 789.374 261.231 789.374 261.73V291.925C789.374 292.172 789.307 292.417 789.177 292.645C789.047 292.873 788.855 293.081 788.614 293.256C788.373 293.43 788.087 293.569 787.772 293.663C787.457 293.758 787.119 293.806 786.778 293.807Z" fill="#1574FF"/>
<path d="M841.618 293.807C841.277 293.807 840.94 293.758 840.625 293.664C840.31 293.569 840.024 293.431 839.783 293.256C839.542 293.081 839.35 292.874 839.22 292.646C839.089 292.418 839.022 292.173 839.022 291.926V264.239C839.024 263.74 839.298 263.263 839.785 262.911C840.271 262.559 840.931 262.362 841.618 262.362C842.306 262.362 842.965 262.559 843.452 262.911C843.939 263.263 844.213 263.74 844.214 264.239V291.926C844.214 292.173 844.147 292.417 844.017 292.646C843.886 292.874 843.695 293.081 843.454 293.256C843.213 293.431 842.927 293.569 842.612 293.664C842.297 293.758 841.959 293.807 841.618 293.807Z" fill="#1574FF"/>
</g>
<defs>
<clipPath id="clip0_826_3377">
<rect width="1072" height="572" fill="white"/>
</clipPath>
</defs>
</svg>
