<svg width="51" height="26" viewBox="0 0 51 26" fill="none" xmlns="http://www.w3.org/2000/svg">
<path d="M18.8237 19.4065L21.2338 5.3916H25.1357L22.7257 19.4065H18.8237Z" fill="#293688"/>
<path d="M36.6163 5.75399C35.8431 5.46996 34.6316 5.16577 33.1187 5.16577C29.2624 5.16577 26.5461 7.06708 26.5227 9.79103C26.5013 11.8044 28.4617 12.9274 29.9427 13.5984C31.4615 14.284 31.9723 14.7239 31.9648 15.3366C31.9554 16.276 30.7514 16.7054 29.6295 16.7054C28.0679 16.7049 27.2379 16.4929 25.9562 15.9698L25.4534 15.7465L24.9054 18.884C25.817 19.2753 27.5029 19.6147 29.2529 19.6319C33.3543 19.631 36.018 17.7532 36.0479 14.8435C36.0628 13.2494 35.0229 12.0362 32.7715 11.0357C31.4073 10.3882 30.5718 9.95569 30.5808 9.29849C30.5808 8.71616 31.2885 8.09326 32.8157 8.09326C34.0918 8.07362 35.0164 8.34601 35.737 8.63004L36.0862 8.79169L36.6163 5.75399Z" fill="#293688"/>
<path d="M43.2689 5.3916C42.334 5.3916 41.6585 5.67275 41.2477 6.58519L35.4648 19.407H39.5961L40.3993 17.2594H45.3352L45.7938 19.407H49.4665L46.2534 5.392H43.269L43.2689 5.3916ZM41.4954 14.4551C41.8177 13.648 43.0496 10.5379 43.0496 10.5379C43.0272 10.5747 43.3703 9.72694 43.5673 9.20089L43.8314 10.4086C43.8314 10.4086 44.5778 13.7542 44.7345 14.4555H41.4954V14.4551Z" fill="#293688"/>
<path d="M11.708 14.9987L11.3643 13.0773C10.6522 10.8377 8.442 8.41438 5.96533 7.20024L9.41279 19.4065H13.545L19.7421 5.3916H15.6108L11.708 14.9987Z" fill="#293688"/>
<path d="M1.72314 5.39185V5.61815C6.61933 6.77784 10.0185 9.70964 11.3643 13.0777L9.94943 6.58792C9.71325 5.70101 8.99752 5.42273 8.15061 5.39198L1.72314 5.39185Z" fill="#F7981D"/>
</svg>
