<svg width="1393" height="658" viewBox="0 0 1393 658" fill="none" xmlns="http://www.w3.org/2000/svg">
<g clip-path="url(#clip0_822_3238)">
<path d="M79.557 657.419C30.965 657.419 -4.30201 611.357 8.17299 564.394C28.092 489.407 85.153 388.87 244.648 341.184C456.481 277.85 444.606 22.5701 613.8 22.5701C782.994 22.5701 783.886 152.213 834.332 165.4C884.778 178.587 1053.88 139.431 1091.65 255C1161.48 468.631 1255.2 365.645 1327.93 530.157C1332.46 540.468 1336.37 551.033 1339.66 561.8C1354.32 609.306 1318.74 657.421 1269.02 657.421L79.557 657.419Z" fill="#F3F5FD"/>
<path d="M1227.77 460.445C1221.01 480.903 1197.71 499.082 1204.67 514.128C1207.31 519.846 1209.97 525.828 1211.2 531.938C1211.99 535.581 1212.12 539.337 1211.59 543.027C1209.08 558.958 1194.17 569.541 1180.3 577.781C1179.45 578.288 1178.58 578.805 1177.72 579.322C1164.58 587.193 1150.82 596.256 1146.6 610.784C1144.26 618.856 1145.29 627.484 1144.32 635.832C1143.41 643.502 1140.8 650.874 1136.7 657.419H1048.16C1040.3 648.757 1040.96 634.197 1046.94 623.983C1053.34 613.053 1064.16 605.625 1073.92 597.543C1082.35 590.558 1090.57 582.149 1093.79 571.894C1094.3 570.271 1094.68 568.609 1094.92 566.924C1095.7 561.374 1095.27 533.024 1104.9 515.573C1119.77 488.626 1143.9 495.263 1151.28 480.059C1154.1 474.235 1156.54 402.668 1203.55 415.888C1208.13 417.114 1212.42 419.26 1216.14 422.196C1219.87 425.131 1222.96 428.795 1225.23 432.964C1227.49 437.133 1228.89 441.719 1229.32 446.444C1229.76 451.168 1229.23 455.932 1227.77 460.445Z" fill="#C1D8ED"/>
<path d="M1313.74 572.347C1312.39 573.276 1310.94 574.048 1309.42 574.647C1296.74 579.405 1261.47 578.877 1256.31 591.401C1253.88 597.289 1253.3 603.788 1251.22 609.813C1246.5 623.476 1234.05 633.721 1220.13 637.572C1215.11 638.954 1209.93 639.598 1204.96 641.138C1195.38 644.124 1187.45 650.128 1180.48 657.418H1066.14C1066.09 649.836 1067.95 642.363 1071.56 635.693C1075.17 629.024 1080.4 623.373 1086.77 619.266C1099.49 611.248 1115.55 609.749 1128.03 601.372C1136.26 595.843 1142.18 587.856 1146.87 579.025C1149.86 573.248 1152.5 567.297 1154.77 561.205C1158.26 552.141 1161.92 542.414 1169.85 536.805C1173.63 534.136 1178.1 532.638 1182.58 531.467C1194.04 528.467 1202.85 530.232 1211.2 531.942C1221.33 534.009 1230.78 535.983 1243.47 529.242C1265.99 517.278 1298.91 457.612 1331.81 514.302C1345 537.034 1326.8 563.611 1313.74 572.347Z" fill="#8DDBE0"/>
<path d="M177.734 460.445C184.487 480.903 207.794 499.082 200.834 514.128C198.186 519.846 195.527 525.828 194.303 531.938C193.509 535.581 193.377 539.337 193.913 543.027C196.424 558.958 211.332 569.541 225.196 577.781C226.051 578.288 226.916 578.805 227.781 579.322C240.917 587.193 254.675 596.256 258.895 610.784C261.238 618.856 260.204 627.484 261.175 635.832C262.095 643.502 264.699 650.874 268.803 657.419H357.336C365.196 648.757 364.542 634.197 358.559 623.983C352.159 613.053 341.34 605.625 331.581 597.543C323.15 590.558 314.931 582.149 311.713 571.894C311.202 570.271 310.825 568.609 310.585 566.924C309.803 561.374 310.225 533.024 300.603 515.573C285.727 488.626 261.597 495.263 254.222 480.059C251.394 474.235 248.957 402.668 201.953 415.888C197.369 417.114 193.083 419.26 189.355 422.195C185.628 425.131 182.537 428.795 180.271 432.964C178.005 437.132 176.612 441.719 176.175 446.443C175.739 451.168 176.27 455.932 177.734 460.445Z" fill="#C1D8ED"/>
<path d="M91.755 572.347C93.1045 573.276 94.556 574.048 96.081 574.647C108.763 579.405 144.035 578.877 149.194 591.401C151.621 597.289 152.201 603.788 154.279 609.813C158.996 623.476 171.446 633.721 185.373 637.572C190.385 638.954 195.573 639.598 200.534 641.138C210.115 644.124 218.049 650.128 225.023 657.418H339.363C339.414 649.836 337.548 642.363 333.941 635.694C330.333 629.024 325.1 623.374 318.726 619.266C306.012 611.248 289.953 609.749 277.471 601.372C269.242 595.843 263.323 587.856 258.628 579.025C255.642 573.248 253.004 567.297 250.728 561.205C247.236 552.141 243.585 542.414 235.651 536.805C231.874 534.136 227.4 532.638 222.916 531.467C211.458 528.467 202.648 530.232 194.302 531.942C184.173 534.009 174.72 535.983 162.027 529.242C139.511 517.278 106.592 457.612 73.695 514.302C60.5 537.034 78.7 563.611 91.755 572.347Z" fill="#8DDBE0"/>
<path d="M1224.4 78.4911C1224.4 78.4911 1215.78 73.0481 1218.03 66.7441C1220.28 60.4401 1225.99 57.7111 1234.85 60.7661C1241.16 62.9381 1242.09 61.4881 1247.74 59.2801C1250.98 58.0161 1261.16 59.4801 1263.17 66.6061C1265.32 74.2371 1274.18 68.8651 1274.04 81.0201C1273.92 91.1931 1270.96 104.191 1259.04 112.182" fill="#0F1011"/>
<path d="M1256.44 135.115C1256.44 135.115 1249.04 130.439 1252.36 109.575L1236.67 105.407C1236.67 105.407 1237.02 124.367 1228.51 129.729L1256.44 135.115Z" fill="#E98862"/>
<g opacity="0.15">
<path d="M1232.06 126.043L1246.07 116.927L1235.69 116.027C1235.11 119.562 1233.88 122.959 1232.06 126.043Z" fill="black"/>
</g>
<path d="M1262.02 102.122C1260.44 108.408 1256.5 114.175 1250.72 115.805C1243.87 117.739 1238.92 117.528 1231.22 116.942C1220.73 116.142 1221.91 105.223 1222.46 94.1712C1223 83.0712 1224.79 71.2642 1229.23 67.7212C1238.1 60.6502 1262.03 67.3802 1264 80.4882C1265.02 87.2672 1263.54 96.1392 1262.02 102.122Z" fill="#E98862"/>
<path d="M1251.19 115.232C1251.44 116.317 1251.63 116.796 1252.63 116.302C1256.55 114.362 1265.34 110.162 1269.6 92.2402C1273.41 76.1812 1263.9 68.7122 1256.08 65.7102C1249.34 63.1232 1233.29 61.4732 1225.39 65.4482C1218.59 68.8742 1224.4 78.4912 1224.4 78.4912C1228.67 82.0752 1241.51 81.9402 1246.4 82.5212C1250.88 83.0532 1251 85.8022 1250.71 87.5432C1248.93 98.1242 1250.3 111.4 1251.19 115.232Z" fill="#0F1011"/>
<path d="M1237.56 95.3182C1238.36 95.3182 1239.01 94.6694 1239.01 93.8692C1239.01 93.0689 1238.36 92.4202 1237.56 92.4202C1236.76 92.4202 1236.11 93.0689 1236.11 93.8692C1236.11 94.6694 1236.76 95.3182 1237.56 95.3182Z" fill="#0F1011"/>
<path d="M1226.23 93.5152C1227.04 93.5152 1227.68 92.8665 1227.68 92.0662C1227.68 91.2659 1227.04 90.6172 1226.23 90.6172C1225.43 90.6172 1224.79 91.2659 1224.79 92.0662C1224.79 92.8665 1225.43 93.5152 1226.23 93.5152Z" fill="#0F1011"/>
<path d="M1227.85 89.0421H1227.81L1223.97 88.7991C1223.8 88.7842 1223.63 88.7003 1223.52 88.5654C1223.4 88.4305 1223.34 88.2553 1223.35 88.0774C1223.36 87.8996 1223.44 87.7332 1223.58 87.6141C1223.71 87.4949 1223.88 87.4324 1224.06 87.4401L1227.89 87.6841C1228.07 87.6973 1228.23 87.7774 1228.35 87.9079C1228.46 88.0383 1228.53 88.2089 1228.52 88.3842C1228.52 88.5594 1228.44 88.7259 1228.32 88.8488C1228.19 88.9717 1228.03 89.0417 1227.85 89.0441V89.0421Z" fill="#0F1011"/>
<path d="M1240.93 91.492C1240.86 91.4918 1240.79 91.4803 1240.72 91.458L1237.02 90.263C1236.85 90.2075 1236.71 90.0859 1236.62 89.9248C1236.54 89.7637 1236.53 89.5763 1236.58 89.404C1236.64 89.2316 1236.76 89.0882 1236.92 89.0055C1237.08 88.9228 1237.27 88.9075 1237.44 88.963L1241.14 90.163C1241.29 90.2128 1241.43 90.3162 1241.51 90.4544C1241.6 90.5925 1241.63 90.7565 1241.6 90.9167C1241.58 91.077 1241.5 91.223 1241.37 91.3284C1241.25 91.4339 1241.09 91.4919 1240.93 91.492Z" fill="#0F1011"/>
<path d="M1244.81 97.9782C1244.68 98.7748 1244.71 99.5886 1244.9 100.373C1245.09 101.158 1245.43 101.897 1245.9 102.55C1246.38 103.203 1246.97 103.757 1247.66 104.179C1248.35 104.6 1249.11 104.883 1249.91 105.01C1250.71 105.137 1251.52 105.105 1252.3 104.917C1253.09 104.73 1253.83 104.389 1254.48 103.916C1255.13 103.442 1255.69 102.845 1256.11 102.157C1256.53 101.47 1256.81 100.706 1256.94 99.9092C1257.08 99.111 1257.06 98.2927 1256.88 97.5028C1256.7 96.7129 1256.36 95.9677 1255.88 95.3116C1255.41 94.6555 1254.8 94.1018 1254.11 93.6836C1253.41 93.2653 1252.64 92.9911 1251.84 92.8772C1247.49 92.4002 1245.34 94.6272 1244.81 97.9782Z" fill="#E98862"/>
<g opacity="0.15">
<path d="M1230.58 101.4C1230.51 101.4 1230.45 101.388 1230.39 101.365L1226.99 100.032C1226.93 100.006 1226.87 99.9669 1226.82 99.9165C1226.77 99.8661 1226.73 99.8058 1226.71 99.7398C1226.68 99.6737 1226.67 99.6032 1226.68 99.533C1226.68 99.4628 1226.7 99.3944 1226.74 99.3323L1229.41 94.4143C1229.44 94.3539 1229.48 94.3001 1229.53 94.2562C1229.58 94.2123 1229.64 94.1791 1229.71 94.1587C1229.77 94.1383 1229.84 94.1311 1229.91 94.1375C1229.97 94.1439 1230.04 94.1638 1230.1 94.1959C1230.16 94.228 1230.21 94.2718 1230.25 94.3246C1230.29 94.3773 1230.32 94.438 1230.34 94.5029C1230.36 94.5679 1230.36 94.6358 1230.35 94.7025C1230.35 94.7692 1230.32 94.8334 1230.29 94.8913L1227.89 99.3123L1230.76 100.439C1230.87 100.482 1230.96 100.561 1231.01 100.663C1231.07 100.765 1231.09 100.883 1231.07 100.997C1231.04 101.111 1230.98 101.214 1230.89 101.289C1230.8 101.363 1230.69 101.404 1230.58 101.404V101.4Z" fill="black"/>
</g>
<path d="M1236.03 105.2C1236.03 105.2 1230.65 105.356 1227.01 103.765C1227.01 103.765 1226.77 107.28 1230.97 107.948C1235.16 108.616 1236.03 105.2 1236.03 105.2Z" fill="white"/>
<path d="M918.816 363.298H870.15C863.998 363.298 859.011 368.285 859.011 374.437V416.536C859.011 422.688 863.998 427.675 870.15 427.675H918.816C924.968 427.675 929.955 422.688 929.955 416.536V374.437C929.955 368.285 924.968 363.298 918.816 363.298Z" fill="#C1D8ED"/>
<path d="M583.581 168.518H517.93C509.631 168.518 502.903 175.246 502.903 183.545V240.337C502.903 248.636 509.631 255.364 517.93 255.364H583.581C591.88 255.364 598.608 248.636 598.608 240.337V183.545C598.608 175.246 591.88 168.518 583.581 168.518Z" fill="#0CBC8B"/>
<path d="M691.282 144.206C691.553 144.2 691.824 144.219 692.091 144.262C698.824 146.501 700.871 149.784 701.986 152.701C703.15 156.073 703.568 159.657 703.212 163.206C702.671 168.795 700.505 174.102 696.98 178.473C695.242 180.576 693.105 182.315 690.693 183.591C688.282 184.867 685.642 185.654 682.925 185.908C670.482 187.332 657.965 188.011 645.441 187.942C639.952 187.942 634.315 187.836 628.532 187.624C638.177 177.63 648.563 168.379 659.6 159.948C679.7 144.965 689.517 144.206 691.282 144.206ZM691.282 120.206C666.647 120.206 628.282 148.651 585.971 198.876C585.229 199.719 584.743 200.755 584.568 201.864C584.393 202.972 584.537 204.108 584.984 205.138C585.387 206.202 586.085 207.13 586.996 207.812C587.906 208.495 588.992 208.904 590.127 208.993C605.442 210.531 625.053 211.941 645.441 211.941C658.933 212.009 672.416 211.272 685.82 209.732C711.587 206.601 725.12 185.311 727.093 165.6C727.893 157.655 728.269 131 699.659 121.486C696.954 120.611 694.125 120.179 691.282 120.206Z" fill="#0CBC8B"/>
<path d="M411.282 144.207C413.047 144.207 422.87 144.966 442.967 159.948C454.004 168.378 464.39 177.63 474.034 187.624C468.255 187.835 462.618 187.941 457.122 187.941C444.598 188.01 432.081 187.331 419.638 185.907C416.922 185.653 414.282 184.866 411.871 183.59C409.459 182.314 407.323 180.575 405.585 178.472C402.06 174.1 399.893 168.791 399.352 163.201C398.998 159.653 399.416 156.071 400.579 152.701C401.694 149.784 403.742 146.501 410.442 144.272C410.719 144.221 411.001 144.198 411.282 144.207ZM411.282 120.208C408.439 120.181 405.611 120.613 402.906 121.487C374.3 131 374.674 157.655 375.472 165.6C377.449 185.311 390.978 206.6 416.743 209.732C430.147 211.272 443.63 212.01 457.122 211.942C477.515 211.942 497.122 210.531 512.439 208.993C513.573 208.905 514.659 208.495 515.569 207.813C516.479 207.13 517.176 206.203 517.579 205.139C518.025 204.109 518.17 202.973 517.995 201.864C517.82 200.755 517.333 199.719 516.591 198.876C474.286 148.651 435.92 120.208 411.282 120.208Z" fill="#0CBC8B"/>
<path d="M778.392 263.373H319.12V657.42H778.392V263.373Z" fill="#0CBC8B"/>
<path d="M594.13 264.161H503.382V657.42H594.13V264.161Z" fill="white"/>
<g opacity="0.19">
<path d="M778.392 263.373H319.12V345.267H778.392V263.373Z" fill="black"/>
</g>
<path d="M810.297 202.782H287.214V284.188H810.297V202.782Z" fill="#0CBC8B"/>
<path d="M614.622 202.782H482.889V284.188H614.622V202.782Z" fill="white"/>
<path d="M1003.88 349.44C1007.74 350.806 1008.68 352.505 1009.25 353.998C1009.99 356.161 1010.25 358.459 1010.01 360.732C1009.79 362.976 1008.1 374.238 996.983 375.589C987.385 376.686 977.73 377.209 968.07 377.155C966.234 377.155 964.376 377.14 962.496 377.109C985.34 355.081 999.542 349.467 1003.88 349.44ZM1003.91 327.44C984.648 327.44 954.655 349.677 921.578 388.94C920.997 389.599 920.616 390.41 920.48 391.278C920.343 392.145 920.456 393.034 920.806 393.84C921.121 394.672 921.667 395.397 922.378 395.931C923.09 396.464 923.939 396.785 924.826 396.854C936.799 398.054 952.126 399.154 968.07 399.154C978.617 399.208 989.159 398.631 999.637 397.427C1019.78 394.98 1030.36 378.335 1031.9 362.927C1032.53 356.716 1032.82 335.874 1010.46 328.44C1008.34 327.756 1006.13 327.419 1003.91 327.44Z" fill="#C1D8ED"/>
<path d="M785.042 349.44C789.374 349.467 803.577 355.08 826.422 377.11C824.542 377.14 822.683 377.155 820.846 377.156C811.186 377.21 801.531 376.687 791.933 375.589C780.815 374.238 779.133 362.976 778.904 360.727C778.671 358.455 778.931 356.16 779.666 353.998C780.237 352.505 781.174 350.806 785.042 349.44ZM785.01 327.44C782.788 327.419 780.577 327.756 778.462 328.44C756.095 335.874 756.39 356.716 757.015 362.927C758.56 378.336 769.137 394.981 789.279 397.427C799.757 398.632 810.299 399.209 820.846 399.155C836.789 399.155 852.116 398.055 864.091 396.85C864.978 396.781 865.826 396.461 866.538 395.927C867.25 395.394 867.795 394.669 868.11 393.837C868.459 393.031 868.572 392.143 868.436 391.275C868.299 390.407 867.918 389.596 867.338 388.937C834.265 349.673 804.271 327.437 785.01 327.437V327.44Z" fill="#C1D8ED"/>
<path d="M1072.01 439.363H712.96V657.419H1072.01V439.363Z" fill="#C1D8ED"/>
<path d="M927.955 439.979H857.011V657.419H927.955V439.979Z" fill="white"/>
<g opacity="0.19">
<path d="M1072.01 439.363H712.96V503.386H1072.01V439.363Z" fill="black"/>
</g>
<path d="M1096.95 391.995H688.017V455.636H1096.95V391.995Z" fill="#C1D8ED"/>
<path d="M943.977 391.995H840.991V455.636H943.977V391.995Z" fill="white"/>
<path d="M209.464 57.2259L220.09 51.9999C220.09 51.9999 219.915 36.6809 206.344 29.9729C201.844 27.7499 199.253 32.7959 200.186 34.2599C203.27 39.0979 206.786 43.4809 207.234 48.3909C205.444 47.0349 202.887 45.3269 202.266 46.1099C200.632 48.1669 209.464 57.2259 209.464 57.2259Z" fill="#E98862"/>
<path d="M69.374 75.387L58.046 78.841C58.046 78.841 48.472 65.448 53.785 51.272C55.546 46.572 60.885 48.481 61.209 50.188C62.268 55.827 61.924 63.528 64.957 67.415C65.336 65.201 66.033 62.206 67.022 62.353C69.622 62.739 69.374 75.387 69.374 75.387Z" fill="#E98862"/>
<path d="M204.9 105.976C205.362 109.628 201.7 113.212 201.221 116.694C200.73 120.294 203.268 124.732 201.888 128.007C200.488 131.329 195.525 132.607 193.33 135.438C191.135 138.269 191.13 143.394 188.259 145.576C185.431 147.727 180.504 146.37 177.136 147.742C173.881 149.068 171.322 153.509 167.669 153.971C164.016 154.433 160.433 150.766 156.951 150.291C153.351 149.8 148.913 152.339 145.638 150.958C142.316 149.558 141.038 144.595 138.207 142.4C135.376 140.205 130.251 140.2 128.069 137.33C125.918 134.501 127.275 129.574 125.903 126.206C124.577 122.951 120.136 120.392 119.674 116.739C119.212 113.086 122.874 109.504 123.354 106.021C123.845 102.421 121.306 97.9829 122.687 94.7079C124.087 91.3859 129.05 90.1079 131.245 87.2769C133.44 84.4459 133.445 79.3219 136.315 77.1399C139.144 74.9889 144.071 76.3399 147.439 74.9729C150.694 73.6469 153.253 69.2059 156.906 68.7449C160.559 68.2839 164.141 71.9449 167.624 72.4239C171.224 72.9149 175.662 70.3769 178.937 71.7569C182.259 73.1569 183.537 78.1199 186.368 80.3149C189.199 82.5099 194.324 82.5149 196.505 85.3859C198.656 88.2139 197.3 93.1409 198.672 96.5089C199.993 99.7639 204.434 102.323 204.9 105.976Z" fill="#0F1011"/>
<path d="M147.872 151.714C147.872 151.714 155.417 147.279 152.772 126.314L168.603 122.655C168.603 122.655 167.637 141.594 175.974 147.228L147.872 151.714Z" fill="#E98862"/>
<g opacity="0.15">
<path d="M172.529 143.432L158.829 133.87L169.239 133.305C169.695 136.856 170.811 140.291 172.529 143.432Z" fill="black"/>
</g>
<path d="M143.356 118.558C144.741 124.892 148.489 130.783 154.209 132.598C160.453 134.764 167.131 135.37 173.663 134.363C191.073 132.163 185.874 92.5859 177.241 85.2329C168.608 77.8799 144.475 83.8329 142.079 96.8709C140.84 103.614 142.038 112.53 143.356 118.558Z" fill="#E98862"/>
<path d="M168.072 112.548C168.872 112.548 169.521 111.899 169.521 111.099C169.521 110.299 168.872 109.65 168.072 109.65C167.272 109.65 166.623 110.299 166.623 111.099C166.623 111.899 167.272 112.548 168.072 112.548Z" fill="#0F1011"/>
<path d="M179.451 111.11C180.251 111.11 180.9 110.461 180.9 109.661C180.9 108.861 180.251 108.212 179.451 108.212C178.651 108.212 178.002 108.861 178.002 109.661C178.002 110.461 178.651 111.11 179.451 111.11Z" fill="#0F1011"/>
<path d="M177.957 106.587C177.781 106.584 177.612 106.512 177.488 106.387C177.363 106.262 177.292 106.093 177.289 105.917C177.287 105.74 177.353 105.57 177.473 105.441C177.594 105.312 177.76 105.235 177.936 105.226L181.773 105.106C181.951 105.104 182.123 105.172 182.251 105.296C182.38 105.419 182.455 105.587 182.46 105.765C182.466 105.943 182.402 106.116 182.281 106.248C182.161 106.379 181.994 106.458 181.816 106.467L177.979 106.587H177.957Z" fill="#0F1011"/>
<path d="M164.8 108.614C164.636 108.614 164.477 108.555 164.352 108.448C164.228 108.34 164.147 108.191 164.124 108.028C164.101 107.865 164.138 107.699 164.228 107.562C164.317 107.424 164.454 107.323 164.612 107.278L168.353 106.203C168.439 106.178 168.529 106.171 168.618 106.181C168.706 106.191 168.792 106.218 168.871 106.262C168.949 106.305 169.018 106.363 169.073 106.433C169.129 106.503 169.17 106.583 169.195 106.669C169.22 106.755 169.227 106.845 169.217 106.934C169.207 107.022 169.18 107.108 169.136 107.187C169.093 107.265 169.035 107.334 168.965 107.389C168.895 107.445 168.815 107.486 168.729 107.511L164.988 108.587C164.927 108.605 164.864 108.614 164.8 108.614Z" fill="#0F1011"/>
<path d="M169.241 122.47C169.241 122.47 174.61 122.799 178.298 121.326C178.298 121.326 178.422 124.847 174.209 125.379C169.996 125.911 169.241 122.47 169.241 122.47Z" fill="white"/>
<path d="M154.388 101.507C156.106 116.419 155.131 131.519 151.511 146.087C151.511 146.087 138.391 125.628 135.725 108.224C133.225 91.9088 144.881 81.7008 152.962 79.5178C183.673 71.2178 186.92 93.7818 186.92 93.7818C181.794 105.782 151.274 107.1 151.274 107.1" fill="#0F1011"/>
<path d="M161.036 117.658C161.233 119.271 160.783 120.896 159.785 122.178C158.786 123.46 157.32 124.294 155.708 124.498C154.096 124.701 152.469 124.258 151.183 123.265C149.897 122.271 149.057 120.809 148.847 119.198C148.732 118.395 148.779 117.578 148.987 116.794C149.194 116.011 149.557 115.277 150.054 114.636C150.55 113.996 151.171 113.462 151.879 113.066C152.586 112.671 153.366 112.422 154.172 112.334C158.54 112 160.611 114.292 161.036 117.658Z" fill="#E98862"/>
<g opacity="0.15">
<path d="M174.828 118.847C174.71 118.848 174.595 118.806 174.504 118.73C174.413 118.654 174.352 118.549 174.332 118.432C174.312 118.315 174.334 118.195 174.394 118.093C174.454 117.991 174.548 117.914 174.66 117.875L177.56 116.842L175.3 112.342C175.24 112.223 175.23 112.086 175.272 111.96C175.313 111.834 175.403 111.73 175.522 111.67C175.641 111.61 175.778 111.6 175.904 111.642C176.03 111.683 176.134 111.773 176.194 111.892L178.708 116.892C178.74 116.955 178.758 117.025 178.761 117.095C178.764 117.166 178.752 117.237 178.726 117.303C178.699 117.369 178.658 117.428 178.606 117.477C178.555 117.527 178.493 117.564 178.426 117.588L175 118.818C174.945 118.837 174.887 118.847 174.828 118.847Z" fill="black"/>
</g>
<path d="M35.217 371.175C34.606 371.022 32.748 370.558 15.223 363.896L22.685 344.266C30.114 347.09 39.056 350.416 40.545 350.866C40.451 350.838 40.371 350.818 40.309 350.803L35.217 371.175Z" fill="#E98862"/>
<path d="M0.163992 386.836C0.00647573 387.378 -0.0374762 387.947 0.034882 388.508C0.10724 389.068 0.294354 389.607 0.584531 390.092C0.874709 390.576 1.26171 390.996 1.72137 391.324C2.18102 391.653 2.70344 391.883 3.25599 392C4.02183 392.162 4.8182 392.103 5.55131 391.828C6.28443 391.553 6.92375 391.075 7.39399 390.449L22.163 369.322C22.4473 368.912 22.6398 368.446 22.7271 367.955C22.8144 367.464 22.7946 366.959 22.669 366.477C21.3842 362.594 21.3786 358.402 22.653 354.516C23.771 351.526 25.7069 348.91 28.24 346.968C28.4836 346.803 28.6752 346.572 28.7922 346.302C28.9092 346.032 28.9469 345.734 28.9007 345.444C28.8545 345.153 28.7264 344.882 28.5315 344.662C28.3365 344.441 28.0828 344.281 27.8 344.2L16.339 340.82C16.0008 340.72 15.6463 340.688 15.2958 340.726C14.9453 340.763 14.6056 340.87 14.2963 341.039C13.987 341.208 13.7142 341.437 13.4935 341.712C13.2727 341.987 13.1084 342.302 13.01 342.641L0.163992 386.836Z" fill="#C1D8ED"/>
<path d="M121.084 437.161L117.51 416.467C125.342 415.114 134.731 413.423 136.242 413.051C136.142 413.074 136.067 413.098 136.006 413.116L142 433.243C141.4 433.423 139.56 433.969 121.084 437.161Z" fill="#E98862"/>
<path d="M119.807 464.572C119.948 465.119 120.2 465.631 120.548 466.076C120.895 466.521 121.331 466.89 121.827 467.159C122.324 467.428 122.871 467.592 123.433 467.641C123.996 467.689 124.563 467.621 125.098 467.441C125.84 467.191 126.494 466.734 126.985 466.124C127.476 465.514 127.782 464.777 127.868 463.999L129.82 438.299C129.856 437.802 129.784 437.302 129.61 436.835C129.435 436.368 129.161 435.944 128.807 435.593C125.726 432.905 123.588 429.3 122.707 425.307C122.146 422.165 122.48 418.928 123.671 415.966C123.796 415.7 123.842 415.405 123.805 415.114C123.768 414.823 123.649 414.548 123.462 414.322C123.275 414.096 123.028 413.928 122.749 413.838C122.47 413.747 122.171 413.737 121.887 413.81L110.299 416.737C109.957 416.823 109.634 416.975 109.351 417.186C109.068 417.397 108.829 417.661 108.649 417.964C108.468 418.268 108.349 418.604 108.299 418.953C108.249 419.302 108.268 419.658 108.356 420L119.807 464.572Z" fill="#C1D8ED"/>
<path d="M234.746 399.109L234.646 398.264C232.017 376.412 217.375 269.886 215.646 258.625H139.932C139.932 258.625 110.472 354.91 109.332 357.578L36.956 342.147L27.872 378.014L116.982 404.222C121.712 405.611 126.779 405.295 131.299 403.328C135.819 401.362 139.505 397.87 141.713 393.463C141.713 393.463 174.064 310.822 174.713 309.301L194.685 388.238L127.123 407.468L137.251 443.055L221.46 419.087C225.689 417.882 229.349 415.208 231.785 411.546C234.22 407.885 235.27 403.475 234.746 399.109Z" fill="#262626"/>
<path d="M245.827 114.33L206.357 160.09C209.767 173.43 207.557 192.42 209.327 207.77C213.057 240.03 222.527 244.98 219.507 255.38C216.557 265.46 135.397 279.85 132.167 263.18C130.107 252.58 138.337 242.04 135.677 221.2C133.837 206.78 122.467 190.76 120.147 176.42L64.937 146.6C63.4153 145.778 62.1111 144.605 61.1321 143.18C60.1532 141.754 59.5276 140.115 59.307 138.4L50.957 73.5699L72.587 70.7899L80.217 130.07L127.157 155.42C131.387 151.88 137.567 149.27 145.027 148.31C146.447 153.78 180.247 149.49 179.807 144C181.107 143.86 182.107 143.75 182.727 143.7C185.613 143.42 188.525 143.544 191.377 144.07L224.877 105.22L203.307 54.4499L223.377 45.9199L247.597 102.94C248.395 104.814 248.653 106.875 248.34 108.888C248.027 110.901 247.157 112.786 245.827 114.33Z" fill="#367CFF"/>
<path d="M169.227 159.66C157.117 162.02 146.447 153.78 145.027 148.31H145.057C157.067 146.77 172.797 144.79 179.807 144C180.247 149.49 178.3 157.89 169.227 159.66Z" fill="#E98862"/>
<path d="M1193.84 28.2319L1182.74 24.1229C1182.74 24.1229 1181.34 8.86689 1194.15 0.799893C1198.39 -1.87311 1201.49 2.87889 1200.71 4.43089C1198.14 9.56089 1195.09 14.2819 1195.15 19.2119C1196.8 17.6789 1199.16 15.7179 1199.86 16.4329C1201.7 18.3139 1193.84 28.2319 1193.84 28.2319Z" fill="#E98862"/>
<path d="M1358.36 366.963L1354.2 346.38C1354.14 346.393 1354.06 346.409 1353.96 346.434C1355.47 346.052 1364.55 343.134 1372.1 340.648L1378.67 360.596C1360.86 366.458 1358.98 366.838 1358.36 366.963Z" fill="#E98862"/>
<path d="M1392.67 384.194C1392.8 384.743 1392.82 385.313 1392.72 385.869C1392.63 386.426 1392.41 386.956 1392.1 387.426C1391.79 387.897 1391.39 388.299 1390.91 388.606C1390.44 388.913 1389.91 389.119 1389.35 389.211C1388.58 389.339 1387.78 389.243 1387.06 388.936C1386.34 388.628 1385.73 388.121 1385.29 387.475L1371.48 365.702C1371.22 365.28 1371.05 364.805 1370.98 364.31C1370.92 363.815 1370.96 363.313 1371.11 362.836C1372.57 359.016 1372.76 354.828 1371.67 350.888C1370.68 347.851 1368.87 345.15 1366.43 343.095C1366.19 342.919 1366.01 342.68 1365.91 342.406C1365.8 342.132 1365.78 341.834 1365.84 341.546C1365.9 341.259 1366.04 340.994 1366.24 340.783C1366.44 340.572 1366.7 340.423 1366.99 340.354L1378.59 337.493C1378.93 337.409 1379.29 337.393 1379.63 337.446C1379.98 337.499 1380.32 337.621 1380.62 337.804C1380.92 337.987 1381.18 338.228 1381.39 338.513C1381.6 338.797 1381.75 339.12 1381.83 339.463L1392.67 384.194Z" fill="#C1D8ED"/>
<path d="M1203.6 510.913C1196.17 493.702 1195.62 491.865 1195.44 491.262L1215.57 485.268C1215.55 485.207 1215.53 485.129 1215.49 485.035C1216.01 486.504 1219.73 495.288 1222.88 502.584L1203.6 510.913Z" fill="#E98862"/>
<path d="M1181.36 526.978C1180.82 527.16 1180.25 527.23 1179.69 527.183C1179.13 527.135 1178.58 526.973 1178.08 526.704C1177.59 526.436 1177.15 526.068 1176.8 525.623C1176.45 525.178 1176.2 524.666 1176.06 524.119C1175.86 523.361 1175.89 522.564 1176.13 521.82C1176.37 521.076 1176.82 520.416 1177.42 519.919L1197.87 504.219C1198.27 503.916 1198.72 503.703 1199.21 503.594C1199.7 503.485 1200.2 503.482 1200.69 503.586C1204.63 504.698 1208.82 504.517 1212.64 503.07C1215.58 501.819 1218.1 499.769 1219.93 497.153C1220.09 496.903 1220.31 496.702 1220.57 496.574C1220.84 496.446 1221.13 496.395 1221.42 496.428C1221.71 496.46 1221.99 496.576 1222.22 496.759C1222.45 496.943 1222.62 497.188 1222.71 497.466L1226.6 508.766C1226.72 509.099 1226.77 509.452 1226.74 509.804C1226.72 510.156 1226.63 510.5 1226.47 510.817C1226.32 511.133 1226.1 511.416 1225.84 511.649C1225.57 511.882 1225.27 512.06 1224.93 512.174L1181.36 526.978Z" fill="#C1D8ED"/>
<path d="M1159.18 376.9C1160.21 354.133 1181.29 250.547 1183.52 239.376L1259.16 242.8C1259.16 242.8 1284.24 340.319 1285.26 343.036L1357.94 337.886L1365.39 374.128L1275.5 389.286C1270.71 390.459 1265.67 389.914 1261.24 387.745C1256.81 385.576 1253.29 381.922 1251.28 377.42C1251.28 377.42 1222.7 293.4 1222.12 291.851L1198.6 369.8L1225.15 489.612L1189.82 500.602C1189.82 500.602 1158.76 386.107 1159.18 376.9Z" fill="#262626"/>
<path d="M1328.61 58.4231L1340.43 59.1511C1340.43 59.1511 1346.63 43.9011 1338.18 31.3511C1335.38 27.1901 1330.62 30.2861 1330.7 32.0201C1330.98 37.7511 1333.11 45.1611 1331.06 49.6471C1330.18 47.5811 1328.8 44.8301 1327.88 45.2021C1325.44 46.1771 1328.61 58.4231 1328.61 58.4231Z" fill="#E98862"/>
<path d="M1347.38 56.0301L1335.11 120.42C1334.82 121.96 1334.19 123.417 1333.28 124.694C1332.38 125.971 1331.2 127.037 1329.84 127.82L1283.27 154.65C1283.87 170.63 1268 188.86 1265.1 205.52C1261.5 226.21 1269.24 237.11 1266.71 247.61C1262.73 264.12 1182.3 246.07 1179.82 235.87C1177.26 225.35 1186.95 220.82 1192.13 188.77C1194.6 173.52 1193.25 154.44 1197.26 141.27L1159.9 93.7701C1158.81 92.3713 1158.07 90.7255 1157.75 88.9757C1157.43 87.226 1157.55 85.4253 1158.08 83.7301L1178.87 18.3301L1199.65 24.9301L1180.61 84.8301L1212.95 125.95C1215.82 125.546 1218.74 125.553 1221.6 125.97C1222.22 126.05 1223.21 126.2 1224.5 126.4C1223.82 131.86 1257.39 137.68 1259.06 132.28C1263.32 132.985 1267.44 134.38 1271.25 136.41L1314.63 111.42L1325.96 51.9501L1347.38 56.0301Z" fill="#367CFF"/>
<path d="M1259.06 132.28C1257.39 137.68 1246.36 145.43 1234.37 142.52C1225.39 140.35 1223.82 131.86 1224.5 126.4C1231.48 127.5 1247.09 130.19 1259.02 132.27C1259.04 132.268 1259.05 132.272 1259.06 132.28Z" fill="#E98862"/>
</g>
<defs>
<clipPath id="clip0_822_3238">
<rect width="1392.79" height="657.419" fill="white"/>
</clipPath>
</defs>
</svg>
